<svg width="423" height="278" viewBox="0 0 423 278" fill="none" xmlns="http://www.w3.org/2000/svg">
<path d="M355.209 215.678C355.209 215.678 350.477 212.555 345.787 214.777C345.787 214.777 347.231 217.557 353.168 217.295L355.209 215.678Z" fill="#FC1ABD"/>
<path d="M355.809 215.844C355.809 215.844 357.249 221.327 353.638 225.058C353.638 225.058 351.466 222.798 353.638 217.261L355.809 215.844Z" fill="#FC1ABD"/>
<path d="M361.693 210.58C361.693 210.58 361.342 205.917 350.812 207.465C350.812 207.465 350.762 210.472 354.458 211.897C358.154 213.322 359.848 212.12 361.693 210.58Z" fill="#FC1ABD"/>
<path d="M362.355 210.549C362.355 210.549 366.806 211.978 362.836 221.854C362.836 221.854 359.898 221.2 359.371 217.268C358.843 213.337 360.407 211.982 362.355 210.549Z" fill="#FC1ABD"/>
<path d="M368.299 203.934C368.299 203.934 368.904 196.26 358.143 197.045C358.143 197.045 357.373 203.976 366.401 205.778L368.299 203.934Z" fill="#FC1ABD"/>
<path d="M375.411 195.27C375.411 195.27 373.936 186.572 363.179 189.164C363.179 189.164 363.14 196.684 373.655 197.342L375.411 195.27Z" fill="#FC1ABD"/>
<path d="M380.609 186.314C380.609 186.314 378.137 177.843 367.479 180.377C367.479 180.377 370.017 187.997 379.9 187.878L380.609 186.314Z" fill="#FC1ABD"/>
<path d="M385.545 177.566C385.545 177.566 383.131 168.775 372.839 171.405C372.839 171.405 376.273 179.757 384.863 179.052L385.545 177.566Z" fill="#FC1ABD"/>
<path d="M388.725 169.257C388.725 169.257 386.869 158.506 377.274 160.886C377.274 160.886 380.062 170.666 388.02 170.824L388.725 169.257Z" fill="#FC1ABD"/>
<path d="M391.709 159.218C391.709 159.218 389.48 148.383 379.773 151.517C379.773 151.517 383.577 161.76 391.02 160.701L391.709 159.218Z" fill="#FC1ABD"/>
<path d="M393.542 149.877C393.542 149.877 390.003 139.038 382.499 139.33C382.499 139.33 386.115 150.778 392.914 152.037L393.542 149.877Z" fill="#FC1ABD"/>
<path d="M394.727 140.759C394.727 140.759 390.877 127.714 384.771 128.719C384.771 128.719 387.435 138.691 394.512 142.792L394.727 140.759Z" fill="#FC1ABD"/>
<path d="M395.397 129.881C395.397 129.881 391.786 119.011 385.772 118.576C385.772 118.576 388.228 129.273 395.278 132.707L395.397 129.881Z" fill="#FC1ABD"/>
<path d="M396.125 119.731C396.125 119.731 391.624 108.85 387.655 108.603C387.655 108.603 389.61 119.319 395.74 121.518L396.125 119.731Z" fill="#FC1ABD"/>
<path d="M396.622 110.29C396.622 110.29 393.853 98.4726 389.876 97.4907C389.876 97.4907 390.419 107.159 396.221 111.175L396.622 110.29Z" fill="#FC1ABD"/>
<path d="M398.123 97.9221C398.123 97.9221 395.213 88.5 391.99 87.0637C391.99 87.0637 392.625 98.1724 397.38 100.225L398.123 97.9221Z" fill="#FC1ABD"/>
<path d="M399.367 89.8359L399.952 73.2249C399.952 73.2249 393.927 85.7467 398.932 92.7507L399.367 89.8359Z" fill="#FC1ABD"/>
<path d="M404.018 73.3135C404.018 73.3135 408.357 61.1845 409.408 60.5068C409.408 60.5068 400.899 68.3772 401.731 78.5002L404.018 73.3135Z" fill="#FC1ABD"/>
<path d="M368.592 203.876C368.592 203.876 376.223 202.879 375.996 213.664C375.996 213.664 369.1 214.789 366.848 205.867L368.592 203.876Z" fill="#FC1ABD"/>
<path d="M375.773 194.978C375.773 194.978 384.59 194.951 383.858 205.99C383.858 205.99 376.454 207.315 374.013 197.065L375.773 194.978Z" fill="#FC1ABD"/>
<path d="M380.693 187.026C380.693 187.026 388.698 183.272 393.819 192.964C393.819 192.964 386.426 196.091 379.985 188.594L380.693 187.026Z" fill="#FC1ABD"/>
<path d="M385.722 177.647C385.722 177.647 393.919 173.654 398.732 183.118C398.732 183.118 390.192 186.06 385.044 179.145L385.722 177.647Z" fill="#FC1ABD"/>
<path d="M388.621 169.491C388.621 169.491 396.51 161.956 402.805 169.576C402.805 169.576 394.747 175.779 388.259 171.17L388.621 169.491Z" fill="#FC1ABD"/>
<path d="M391.262 158.96C391.262 158.96 399.198 151.259 405.443 159.314C405.443 159.314 396.537 165.641 390.977 160.577L391.262 158.96Z" fill="#FC1ABD"/>
<path d="M392.745 149.569C392.745 149.569 398.859 139.943 406.059 142.091C406.059 142.091 399.713 152.284 392.814 151.829L392.745 149.569Z" fill="#FC1ABD"/>
<path d="M394.546 140.697C394.546 140.697 400.707 128.576 406.536 130.686C406.536 130.686 402.093 140.004 394.389 142.742L394.546 140.697Z" fill="#FC1ABD"/>
<path d="M394.974 129.25C394.974 129.25 401.307 119.708 407.241 120.875C407.241 120.875 402.062 130.551 394.358 132.011L394.974 129.25Z" fill="#FC1ABD"/>
<path d="M395.467 119.519C395.467 119.519 400.376 108.811 404.364 108.738C404.364 108.738 402.008 119.369 395.798 121.337L395.467 119.519Z" fill="#FC1ABD"/>
<path d="M396.429 110.059C396.429 110.059 401.885 99.216 405.985 99.1929C405.985 99.1929 403.194 108.465 396.61 111.01L396.429 110.059Z" fill="#FC1ABD"/>
<path d="M397.249 98.5998C397.249 98.5998 401.33 89.6281 404.711 88.6116C404.711 88.6116 402.67 99.547 397.7 100.979L397.249 98.5998Z" fill="#FC1ABD"/>
<path d="M399.852 89.5088L408.973 75.6123C408.973 75.6123 406.636 89.3201 398.52 92.1695L399.852 89.5088Z" fill="#FC1ABD"/>
<path d="M406.112 74.434C406.112 74.434 416.712 67.1181 417.097 65.936C417.097 65.936 411.707 76.1822 401.696 77.9919L406.112 74.434Z" fill="#FC1ABD"/>
<path d="M406.748 71.1419C406.748 71.1419 418.918 59.4402 422.025 59.4517C422.025 59.4517 411.988 59.9099 406.455 70.5181L406.748 71.1419Z" fill="#FC1ABD"/>
<path d="M397.369 100.336L397.811 100.394C400.098 82.4932 403.433 71.9004 407.198 70.6028L407.052 70.1793C403.059 71.5654 399.702 81.9964 397.369 100.336Z" fill="#444053"/>
<path d="M394.004 143.146L394.673 143.2C394.816 141.529 394.924 139.82 394.997 138.114C395.636 123.297 396.626 109.689 397.927 99.4894L397.542 99.0081C396.237 109.231 394.966 123.247 394.327 138.087C394.254 139.781 394.146 141.483 394.004 143.146Z" fill="#444053"/>
<path d="M342.719 224.219C342.834 224.169 354.627 218.901 366.867 206.341C374.038 198.984 379.997 190.536 384.521 181.312C390.18 169.788 393.63 155.626 394.785 141.868L394.088 142.195C391.489 173.076 377.432 194.177 366.255 205.671C354.135 218.119 342.472 223.333 342.357 223.383L342.719 224.219Z" fill="#444053"/>
<path d="M373.255 0H3.29578C2.42168 0 1.58339 0.347255 0.965311 0.965381C0.347232 1.58351 0 2.42187 0 3.29603V12.8992H376.551V3.29603C376.551 2.42187 376.203 1.58351 375.585 0.965381C374.967 0.347255 374.129 0 373.255 0Z" fill="#3F3D56"/>
<path d="M0 12.8992V229.005C0 230.767 0.700145 232.458 1.94641 233.704C3.19268 234.951 4.88297 235.651 6.64546 235.651H369.905C371.668 235.651 373.358 234.951 374.604 233.704C375.85 232.458 376.551 230.767 376.551 229.005V12.8992H0Z" fill="#F4F4F4"/>
<path opacity="0.8" d="M5.96397 7.89358C6.81454 7.89358 7.50406 7.20401 7.50406 6.35337C7.50406 5.50274 6.81454 4.81317 5.96397 4.81317C5.11341 4.81317 4.42389 5.50274 4.42389 6.35337C4.42389 7.20401 5.11341 7.89358 5.96397 7.89358Z" fill="#FA5959"/>
<path opacity="0.8" d="M10.1992 7.89358C11.0498 7.89358 11.7393 7.20401 11.7393 6.35337C11.7393 5.50274 11.0498 4.81317 10.1992 4.81317C9.34864 4.81317 8.65912 5.50274 8.65912 6.35337C8.65912 7.20401 9.34864 7.89358 10.1992 7.89358Z" fill="#FED253"/>
<path opacity="0.8" d="M14.4344 7.89358C15.285 7.89358 15.9745 7.20401 15.9745 6.35337C15.9745 5.50274 15.285 4.81317 14.4344 4.81317C13.5839 4.81317 12.8943 5.50274 12.8943 6.35337C12.8943 7.20401 13.5839 7.89358 14.4344 7.89358Z" fill="#8CCF4D"/>
<path opacity="0.05" d="M337.629 48.9322H35.0023V182.013H337.629V48.9322Z" fill="black"/>
<path d="M335.319 49.941H37.3124V180.088H335.319V49.941Z" fill="#3F3D56"/>
<path d="M118.552 83.4365C112.688 83.4365 106.956 85.1754 102.081 88.4333C97.2057 91.6911 93.4058 96.3216 91.1619 101.739C88.918 107.157 88.3309 113.118 89.4749 118.87C90.6188 124.621 93.4423 129.904 97.5885 134.05C101.735 138.197 107.017 141.021 112.768 142.165C118.519 143.309 124.48 142.721 129.897 140.477C135.314 138.233 139.944 134.433 143.202 129.557C146.46 124.682 148.198 118.949 148.198 113.085C148.198 109.192 147.432 105.336 145.942 101.739C144.452 98.1421 142.268 94.8736 139.515 92.1205C136.762 89.3673 133.494 87.1834 129.897 85.6934C126.3 84.2034 122.445 83.4365 118.552 83.4365ZM123.869 113.798V127.837H113.389V113.798C111.938 112.7 110.87 111.174 110.333 109.436C109.796 107.698 109.819 105.835 110.398 104.111C110.977 102.386 112.083 100.887 113.56 99.8251C115.037 98.7631 116.81 98.1917 118.629 98.1917C120.448 98.1917 122.221 98.7631 123.698 99.8251C125.174 100.887 126.28 102.386 126.859 104.111C127.438 105.835 127.461 107.698 126.925 109.436C126.388 111.174 125.319 112.7 123.869 113.798Z" fill="#FC1ABD"/>
<path opacity="0.05" d="M118.552 83.4365C112.688 83.4365 106.956 85.1754 102.081 88.4333C97.2057 91.6911 93.4058 96.3216 91.1619 101.739C88.918 107.157 88.3309 113.118 89.4749 118.87C90.6188 124.621 93.4423 129.904 97.5885 134.05C101.735 138.197 107.017 141.021 112.768 142.165C118.519 143.309 124.48 142.721 129.897 140.477C135.314 138.233 139.944 134.433 143.202 129.557C146.46 124.682 148.198 118.949 148.198 113.085C148.198 109.192 147.432 105.336 145.942 101.739C144.452 98.1421 142.268 94.8736 139.515 92.1205C136.762 89.3673 133.494 87.1834 129.897 85.6934C126.3 84.2034 122.445 83.4365 118.552 83.4365ZM123.869 113.798V127.837H113.389V113.798C111.938 112.7 110.87 111.174 110.333 109.436C109.796 107.698 109.819 105.835 110.398 104.111C110.977 102.386 112.083 100.887 113.56 99.8251C115.037 98.7631 116.81 98.1917 118.629 98.1917C120.448 98.1917 122.221 98.7631 123.698 99.8251C125.174 100.887 126.28 102.386 126.859 104.111C127.438 105.835 127.461 107.698 126.925 109.436C126.388 111.174 125.319 112.7 123.869 113.798Z" fill="black"/>
<path d="M118.552 74.9653C111.013 74.9653 103.643 77.201 97.3751 81.3897C91.1068 85.5784 86.2212 91.5319 83.3362 98.4974C80.4512 105.463 79.6964 113.128 81.1671 120.522C82.6379 127.917 86.2682 134.709 91.599 140.04C96.9297 145.371 103.722 149.002 111.116 150.473C118.51 151.944 126.174 151.189 133.139 148.304C140.104 145.418 146.057 140.532 150.245 134.264C154.433 127.995 156.669 120.625 156.669 113.085C156.669 102.975 152.653 93.2793 145.505 86.1304C138.356 78.9815 128.661 74.9653 118.552 74.9653ZM125.386 114.002V132.049H111.91V114.002C110.045 112.59 108.67 110.628 107.98 108.393C107.289 106.157 107.319 103.761 108.063 101.544C108.808 99.3257 110.23 97.3977 112.129 96.0318C114.028 94.6659 116.309 93.9311 118.648 93.9311C120.987 93.9311 123.268 94.6659 125.167 96.0318C127.066 97.3977 128.488 99.3257 129.233 101.544C129.978 103.761 130.007 106.157 129.317 108.393C128.626 110.628 127.251 112.59 125.386 114.002Z" fill="#FC1ABD"/>
<path d="M295.661 108.083H172.455V121.175H295.661V108.083Z" fill="white"/>
<path d="M295.661 131.957H269.095V145.049H295.661V131.957Z" fill="#FC1ABD"/>
<path d="M184.583 114.433H182.354L184.337 112.454C184.372 112.417 184.392 112.368 184.392 112.317C184.392 112.266 184.372 112.217 184.337 112.181C184.319 112.163 184.297 112.148 184.274 112.138C184.25 112.129 184.225 112.124 184.2 112.124C184.174 112.124 184.149 112.129 184.126 112.138C184.102 112.148 184.081 112.163 184.063 112.181L182.08 114.164V111.93C182.08 111.879 182.06 111.83 182.024 111.794C181.988 111.758 181.939 111.738 181.888 111.738C181.837 111.739 181.789 111.759 181.753 111.795C181.717 111.831 181.696 111.88 181.695 111.93V114.164L179.716 112.169C179.698 112.151 179.677 112.137 179.654 112.127C179.63 112.117 179.605 112.112 179.58 112.112C179.554 112.112 179.529 112.117 179.506 112.127C179.482 112.137 179.461 112.151 179.443 112.169C179.407 112.206 179.388 112.255 179.388 112.306C179.388 112.357 179.407 112.406 179.443 112.442L181.426 114.422H179.193C179.142 114.423 179.094 114.443 179.058 114.479C179.022 114.515 179.001 114.563 179 114.614C179 114.665 179.02 114.714 179.057 114.75C179.093 114.786 179.142 114.807 179.193 114.807H181.426L179.443 116.79C179.407 116.826 179.388 116.875 179.388 116.926C179.388 116.977 179.407 117.026 179.443 117.063C179.48 117.098 179.529 117.117 179.58 117.117C179.63 117.117 179.679 117.098 179.716 117.063L181.695 115.08V117.309C181.695 117.361 181.716 117.41 181.752 117.446C181.788 117.482 181.837 117.502 181.888 117.502C181.939 117.502 181.988 117.482 182.024 117.446C182.06 117.41 182.08 117.361 182.08 117.309V115.08L184.063 117.063C184.1 117.098 184.149 117.117 184.2 117.117C184.251 117.117 184.299 117.098 184.337 117.063C184.372 117.026 184.392 116.977 184.392 116.926C184.392 116.875 184.372 116.826 184.337 116.79L182.354 114.807H184.583C184.634 114.807 184.683 114.786 184.719 114.75C184.755 114.714 184.775 114.665 184.775 114.614C184.773 114.565 184.751 114.519 184.715 114.485C184.679 114.452 184.632 114.433 184.583 114.433Z" fill="#FC1ABD"/>
<path d="M192.668 114.433H190.439L192.422 112.454C192.457 112.417 192.477 112.368 192.477 112.317C192.477 112.266 192.457 112.217 192.422 112.181C192.404 112.163 192.383 112.148 192.359 112.138C192.336 112.129 192.311 112.124 192.285 112.124C192.26 112.124 192.235 112.129 192.211 112.138C192.188 112.148 192.166 112.163 192.149 112.181L190.166 114.164V111.93C190.166 111.879 190.145 111.83 190.109 111.794C190.073 111.758 190.024 111.738 189.973 111.738C189.922 111.739 189.874 111.759 189.838 111.795C189.802 111.831 189.782 111.88 189.781 111.93V114.164L187.802 112.169C187.784 112.151 187.763 112.137 187.739 112.127C187.716 112.117 187.69 112.112 187.665 112.112C187.64 112.112 187.614 112.117 187.591 112.127C187.568 112.137 187.546 112.151 187.528 112.169C187.493 112.206 187.473 112.255 187.473 112.306C187.473 112.357 187.493 112.406 187.528 112.442L189.511 114.422H187.278C187.227 114.423 187.179 114.443 187.143 114.479C187.107 114.515 187.087 114.563 187.086 114.614C187.086 114.665 187.106 114.714 187.142 114.75C187.178 114.786 187.227 114.807 187.278 114.807H189.511L187.528 116.79C187.493 116.826 187.473 116.875 187.473 116.926C187.473 116.977 187.493 117.026 187.528 117.063C187.565 117.098 187.614 117.117 187.665 117.117C187.716 117.117 187.765 117.098 187.802 117.063L189.781 115.08V117.309C189.781 117.361 189.801 117.41 189.837 117.446C189.873 117.482 189.922 117.502 189.973 117.502C190.024 117.502 190.073 117.482 190.109 117.446C190.145 117.41 190.166 117.361 190.166 117.309V115.08L192.149 117.063C192.186 117.098 192.235 117.117 192.285 117.117C192.336 117.117 192.385 117.098 192.422 117.063C192.457 117.026 192.477 116.977 192.477 116.926C192.477 116.875 192.457 116.826 192.422 116.79L190.439 114.807H192.668C192.719 114.807 192.768 114.786 192.805 114.75C192.841 114.714 192.861 114.665 192.861 114.614C192.858 114.565 192.836 114.519 192.801 114.485C192.765 114.452 192.718 114.433 192.668 114.433Z" fill="#FC1ABD"/>
<path d="M200.754 114.433H198.525L200.507 112.454C200.543 112.417 200.563 112.368 200.563 112.317C200.563 112.266 200.543 112.217 200.507 112.181C200.49 112.163 200.468 112.148 200.445 112.138C200.421 112.129 200.396 112.124 200.371 112.124C200.345 112.124 200.32 112.129 200.297 112.138C200.273 112.148 200.252 112.163 200.234 112.181L198.251 114.164V111.93C198.251 111.879 198.231 111.83 198.195 111.794C198.159 111.758 198.11 111.738 198.059 111.738C198.008 111.739 197.96 111.759 197.924 111.795C197.888 111.831 197.867 111.88 197.866 111.93V114.164L195.887 112.169C195.869 112.151 195.848 112.137 195.825 112.127C195.801 112.117 195.776 112.112 195.75 112.112C195.725 112.112 195.7 112.117 195.676 112.127C195.653 112.137 195.632 112.151 195.614 112.169C195.578 112.206 195.558 112.255 195.558 112.306C195.558 112.357 195.578 112.406 195.614 112.442L197.597 114.422H195.364C195.313 114.423 195.264 114.443 195.228 114.479C195.193 114.515 195.172 114.563 195.171 114.614C195.171 114.665 195.191 114.714 195.227 114.75C195.264 114.786 195.312 114.807 195.364 114.807H197.597L195.614 116.79C195.578 116.826 195.558 116.875 195.558 116.926C195.558 116.977 195.578 117.026 195.614 117.063C195.651 117.098 195.7 117.117 195.75 117.117C195.801 117.117 195.85 117.098 195.887 117.063L197.866 115.08V117.309C197.866 117.361 197.886 117.41 197.923 117.446C197.959 117.482 198.008 117.502 198.059 117.502C198.11 117.502 198.159 117.482 198.195 117.446C198.231 117.41 198.251 117.361 198.251 117.309V115.08L200.234 117.063C200.271 117.098 200.32 117.117 200.371 117.117C200.421 117.117 200.47 117.098 200.507 117.063C200.543 117.026 200.563 116.977 200.563 116.926C200.563 116.875 200.543 116.826 200.507 116.79L198.525 114.807H200.754C200.805 114.807 200.854 114.786 200.89 114.75C200.926 114.714 200.946 114.665 200.946 114.614C200.943 114.565 200.922 114.519 200.886 114.485C200.85 114.452 200.803 114.433 200.754 114.433Z" fill="#FC1ABD"/>
<path d="M208.839 114.433H206.61L208.593 112.454C208.628 112.417 208.648 112.368 208.648 112.317C208.648 112.266 208.628 112.217 208.593 112.181C208.575 112.163 208.554 112.148 208.53 112.138C208.507 112.129 208.482 112.124 208.456 112.124C208.431 112.124 208.406 112.129 208.382 112.138C208.359 112.148 208.337 112.163 208.319 112.181L206.337 114.164V111.93C206.337 111.879 206.316 111.83 206.28 111.794C206.244 111.758 206.195 111.738 206.144 111.738C206.093 111.739 206.045 111.759 206.009 111.795C205.973 111.831 205.953 111.88 205.952 111.93V114.164L203.973 112.169C203.955 112.151 203.933 112.137 203.91 112.127C203.886 112.117 203.861 112.112 203.836 112.112C203.81 112.112 203.785 112.117 203.762 112.127C203.738 112.137 203.717 112.151 203.699 112.169C203.664 112.206 203.644 112.255 203.644 112.306C203.644 112.357 203.664 112.406 203.699 112.442L205.682 114.422H203.449C203.398 114.423 203.35 114.443 203.314 114.479C203.278 114.515 203.257 114.563 203.256 114.614C203.256 114.665 203.277 114.714 203.313 114.75C203.349 114.786 203.398 114.807 203.449 114.807H205.682L203.699 116.79C203.664 116.826 203.644 116.875 203.644 116.926C203.644 116.977 203.664 117.026 203.699 117.063C203.736 117.098 203.785 117.117 203.836 117.117C203.887 117.117 203.936 117.098 203.973 117.063L205.952 115.08V117.309C205.952 117.361 205.972 117.41 206.008 117.446C206.044 117.482 206.093 117.502 206.144 117.502C206.195 117.502 206.244 117.482 206.28 117.446C206.316 117.41 206.337 117.361 206.337 117.309V115.08L208.319 117.063C208.357 117.098 208.405 117.117 208.456 117.117C208.507 117.117 208.556 117.098 208.593 117.063C208.628 117.026 208.648 116.977 208.648 116.926C208.648 116.875 208.628 116.826 208.593 116.79L206.61 114.807H208.839C208.89 114.807 208.939 114.786 208.975 114.75C209.011 114.714 209.032 114.665 209.032 114.614C209.029 114.565 209.007 114.519 208.971 114.485C208.936 114.452 208.888 114.433 208.839 114.433Z" fill="#FC1ABD"/>
<path d="M216.925 114.433H214.695L216.678 112.454C216.714 112.417 216.734 112.368 216.734 112.317C216.734 112.266 216.714 112.217 216.678 112.181C216.66 112.163 216.639 112.148 216.616 112.138C216.592 112.129 216.567 112.124 216.542 112.124C216.516 112.124 216.491 112.129 216.468 112.138C216.444 112.148 216.423 112.163 216.405 112.181L214.422 114.164V111.93C214.422 111.879 214.402 111.83 214.366 111.794C214.33 111.758 214.281 111.738 214.23 111.738C214.179 111.739 214.13 111.759 214.095 111.795C214.059 111.831 214.038 111.88 214.037 111.93V114.164L212.058 112.169C212.04 112.151 212.019 112.137 211.995 112.127C211.972 112.117 211.947 112.112 211.921 112.112C211.896 112.112 211.871 112.117 211.847 112.127C211.824 112.137 211.803 112.151 211.785 112.169C211.749 112.206 211.729 112.255 211.729 112.306C211.729 112.357 211.749 112.406 211.785 112.442L213.768 114.422H211.534C211.484 114.423 211.435 114.443 211.399 114.479C211.363 114.515 211.343 114.563 211.342 114.614C211.342 114.665 211.362 114.714 211.398 114.75C211.434 114.786 211.483 114.807 211.534 114.807H213.768L211.785 116.79C211.749 116.826 211.729 116.875 211.729 116.926C211.729 116.977 211.749 117.026 211.785 117.063C211.822 117.098 211.871 117.117 211.921 117.117C211.972 117.117 212.021 117.098 212.058 117.063L214.037 115.08V117.309C214.037 117.361 214.057 117.41 214.093 117.446C214.13 117.482 214.179 117.502 214.23 117.502C214.281 117.502 214.33 117.482 214.366 117.446C214.402 117.41 214.422 117.361 214.422 117.309V115.08L216.405 117.063C216.442 117.098 216.491 117.117 216.542 117.117C216.592 117.117 216.641 117.098 216.678 117.063C216.714 117.026 216.734 116.977 216.734 116.926C216.734 116.875 216.714 116.826 216.678 116.79L214.695 114.807H216.925C216.976 114.807 217.025 114.786 217.061 114.75C217.097 114.714 217.117 114.665 217.117 114.614C217.114 114.565 217.093 114.519 217.057 114.485C217.021 114.452 216.974 114.433 216.925 114.433Z" fill="#FC1ABD"/>
<path d="M225.01 114.433H222.781L224.764 112.454C224.799 112.417 224.819 112.368 224.819 112.317C224.819 112.266 224.799 112.217 224.764 112.181C224.746 112.163 224.725 112.148 224.701 112.138C224.678 112.129 224.652 112.124 224.627 112.124C224.602 112.124 224.576 112.129 224.553 112.138C224.53 112.148 224.508 112.163 224.49 112.181L222.508 114.164V111.93C222.508 111.879 222.487 111.83 222.451 111.794C222.415 111.758 222.366 111.738 222.315 111.738C222.264 111.739 222.216 111.759 222.18 111.795C222.144 111.831 222.123 111.88 222.122 111.93V114.164L220.143 112.169C220.126 112.151 220.104 112.137 220.081 112.127C220.057 112.117 220.032 112.112 220.007 112.112C219.981 112.112 219.956 112.117 219.933 112.127C219.909 112.137 219.888 112.151 219.87 112.169C219.835 112.206 219.815 112.255 219.815 112.306C219.815 112.357 219.835 112.406 219.87 112.442L221.853 114.422H219.62C219.569 114.423 219.521 114.443 219.485 114.479C219.449 114.515 219.428 114.563 219.427 114.614C219.427 114.665 219.448 114.714 219.484 114.75C219.52 114.786 219.569 114.807 219.62 114.807H221.853L219.87 116.79C219.835 116.826 219.815 116.875 219.815 116.926C219.815 116.977 219.835 117.026 219.87 117.063C219.907 117.098 219.956 117.117 220.007 117.117C220.058 117.117 220.106 117.098 220.143 117.063L222.122 115.08V117.309C222.122 117.361 222.143 117.41 222.179 117.446C222.215 117.482 222.264 117.502 222.315 117.502C222.366 117.502 222.415 117.482 222.451 117.446C222.487 117.41 222.508 117.361 222.508 117.309V115.08L224.49 117.063C224.527 117.098 224.576 117.117 224.627 117.117C224.678 117.117 224.727 117.098 224.764 117.063C224.799 117.026 224.819 116.977 224.819 116.926C224.819 116.875 224.799 116.826 224.764 116.79L222.781 114.807H225.01C225.061 114.807 225.11 114.786 225.146 114.75C225.182 114.714 225.203 114.665 225.203 114.614C225.2 114.565 225.178 114.519 225.142 114.485C225.107 114.452 225.059 114.433 225.01 114.433Z" fill="#FC1ABD"/>
<path d="M233.096 114.433H230.866L232.849 112.454C232.885 112.417 232.905 112.368 232.905 112.317C232.905 112.266 232.885 112.217 232.849 112.181C232.831 112.163 232.81 112.148 232.787 112.138C232.763 112.129 232.738 112.124 232.713 112.124C232.687 112.124 232.662 112.129 232.638 112.138C232.615 112.148 232.594 112.163 232.576 112.181L230.593 114.164V111.93C230.593 111.879 230.573 111.83 230.537 111.794C230.5 111.758 230.452 111.738 230.4 111.738C230.35 111.739 230.301 111.759 230.265 111.795C230.23 111.831 230.209 111.88 230.208 111.93V114.164L228.229 112.169C228.211 112.151 228.19 112.137 228.166 112.127C228.143 112.117 228.118 112.112 228.092 112.112C228.067 112.112 228.042 112.117 228.018 112.127C227.995 112.137 227.973 112.151 227.956 112.169C227.92 112.206 227.9 112.255 227.9 112.306C227.9 112.357 227.92 112.406 227.956 112.442L229.938 114.422H227.705C227.655 114.423 227.606 114.443 227.57 114.479C227.534 114.515 227.514 114.563 227.513 114.614C227.513 114.665 227.533 114.714 227.569 114.75C227.605 114.786 227.654 114.807 227.705 114.807H229.938L227.956 116.79C227.92 116.826 227.9 116.875 227.9 116.926C227.9 116.977 227.92 117.026 227.956 117.063C227.993 117.098 228.041 117.117 228.092 117.117C228.143 117.117 228.192 117.098 228.229 117.063L230.208 115.08V117.309C230.208 117.361 230.228 117.41 230.264 117.446C230.3 117.482 230.349 117.502 230.4 117.502C230.452 117.502 230.5 117.482 230.537 117.446C230.573 117.41 230.593 117.361 230.593 117.309V115.08L232.576 117.063C232.613 117.098 232.662 117.117 232.713 117.117C232.763 117.117 232.812 117.098 232.849 117.063C232.885 117.026 232.905 116.977 232.905 116.926C232.905 116.875 232.885 116.826 232.849 116.79L230.866 114.807H233.096C233.147 114.807 233.196 114.786 233.232 114.75C233.268 114.714 233.288 114.665 233.288 114.614C233.285 114.565 233.264 114.519 233.228 114.485C233.192 114.452 233.145 114.433 233.096 114.433Z" fill="#FC1ABD"/>
<path d="M241.181 114.433H238.952L240.935 112.454C240.97 112.417 240.99 112.368 240.99 112.317C240.99 112.266 240.97 112.217 240.935 112.181C240.917 112.163 240.895 112.148 240.872 112.138C240.849 112.129 240.823 112.124 240.798 112.124C240.773 112.124 240.747 112.129 240.724 112.138C240.7 112.148 240.679 112.163 240.661 112.181L238.678 114.164V111.93C238.678 111.879 238.658 111.83 238.622 111.794C238.586 111.758 238.537 111.738 238.486 111.738C238.435 111.739 238.387 111.759 238.351 111.795C238.315 111.831 238.294 111.88 238.293 111.93V114.164L236.314 112.169C236.296 112.151 236.275 112.137 236.252 112.127C236.228 112.117 236.203 112.112 236.178 112.112C236.152 112.112 236.127 112.117 236.104 112.127C236.08 112.137 236.059 112.151 236.041 112.169C236.005 112.206 235.986 112.255 235.986 112.306C235.986 112.357 236.005 112.406 236.041 112.442L238.024 114.422H235.791C235.74 114.423 235.692 114.443 235.656 114.479C235.62 114.515 235.599 114.563 235.598 114.614C235.598 114.665 235.618 114.714 235.655 114.75C235.691 114.786 235.74 114.807 235.791 114.807H238.024L236.041 116.79C236.005 116.826 235.986 116.875 235.986 116.926C235.986 116.977 236.005 117.026 236.041 117.063C236.078 117.098 236.127 117.117 236.178 117.117C236.228 117.117 236.277 117.098 236.314 117.063L238.293 115.08V117.309C238.293 117.361 238.314 117.41 238.35 117.446C238.386 117.482 238.435 117.502 238.486 117.502C238.537 117.502 238.586 117.482 238.622 117.446C238.658 117.41 238.678 117.361 238.678 117.309V115.08L240.661 117.063C240.698 117.098 240.747 117.117 240.798 117.117C240.849 117.117 240.898 117.098 240.935 117.063C240.97 117.026 240.99 116.977 240.99 116.926C240.99 116.875 240.97 116.826 240.935 116.79L238.952 114.807H241.181C241.232 114.807 241.281 114.786 241.317 114.75C241.353 114.714 241.374 114.665 241.374 114.614C241.371 114.565 241.349 114.519 241.313 114.485C241.277 114.452 241.23 114.433 241.181 114.433Z" fill="#FC1ABD"/>
<path d="M249.266 114.433H247.037L249.02 112.454C249.056 112.417 249.075 112.368 249.075 112.317C249.075 112.266 249.056 112.217 249.02 112.181C249.002 112.163 248.981 112.148 248.957 112.138C248.934 112.129 248.909 112.124 248.883 112.124C248.858 112.124 248.833 112.129 248.809 112.138C248.786 112.148 248.765 112.163 248.747 112.181L246.764 114.164V111.93C246.764 111.879 246.744 111.83 246.707 111.794C246.671 111.758 246.622 111.738 246.571 111.738C246.521 111.739 246.472 111.759 246.436 111.795C246.4 111.831 246.38 111.88 246.379 111.93V114.164L244.4 112.169C244.382 112.151 244.361 112.137 244.337 112.127C244.314 112.117 244.289 112.112 244.263 112.112C244.238 112.112 244.213 112.117 244.189 112.127C244.166 112.137 244.144 112.151 244.126 112.169C244.091 112.206 244.071 112.255 244.071 112.306C244.071 112.357 244.091 112.406 244.126 112.442L246.109 114.422H243.876C243.825 114.423 243.777 114.443 243.741 114.479C243.705 114.515 243.685 114.563 243.684 114.614C243.684 114.665 243.704 114.714 243.74 114.75C243.776 114.786 243.825 114.807 243.876 114.807H246.109L244.126 116.79C244.091 116.826 244.071 116.875 244.071 116.926C244.071 116.977 244.091 117.026 244.126 117.063C244.164 117.098 244.212 117.117 244.263 117.117C244.314 117.117 244.363 117.098 244.4 117.063L246.379 115.08V117.309C246.379 117.361 246.399 117.41 246.435 117.446C246.471 117.482 246.52 117.502 246.571 117.502C246.622 117.502 246.671 117.482 246.707 117.446C246.744 117.41 246.764 117.361 246.764 117.309V115.08L248.747 117.063C248.784 117.098 248.833 117.117 248.883 117.117C248.934 117.117 248.983 117.098 249.02 117.063C249.056 117.026 249.075 116.977 249.075 116.926C249.075 116.875 249.056 116.826 249.02 116.79L247.037 114.807H249.266C249.318 114.807 249.366 114.786 249.403 114.75C249.439 114.714 249.459 114.665 249.459 114.614C249.456 114.565 249.434 114.519 249.399 114.485C249.363 114.452 249.316 114.433 249.266 114.433Z" fill="#FC1ABD"/>
<path d="M257.352 114.433H255.123L257.105 112.454C257.141 112.417 257.161 112.368 257.161 112.317C257.161 112.266 257.141 112.217 257.105 112.181C257.088 112.163 257.066 112.148 257.043 112.138C257.019 112.129 256.994 112.124 256.969 112.124C256.943 112.124 256.918 112.129 256.895 112.138C256.871 112.148 256.85 112.163 256.832 112.181L254.849 114.164V111.93C254.849 111.879 254.829 111.83 254.793 111.794C254.757 111.758 254.708 111.738 254.657 111.738C254.606 111.739 254.558 111.759 254.522 111.795C254.486 111.831 254.465 111.88 254.464 111.93V114.164L252.485 112.169C252.467 112.151 252.446 112.137 252.423 112.127C252.399 112.117 252.374 112.112 252.349 112.112C252.323 112.112 252.298 112.117 252.275 112.127C252.251 112.137 252.23 112.151 252.212 112.169C252.176 112.206 252.156 112.255 252.156 112.306C252.156 112.357 252.176 112.406 252.212 112.442L254.195 114.422H251.962C251.911 114.423 251.862 114.443 251.827 114.479C251.791 114.515 251.77 114.563 251.769 114.614C251.769 114.665 251.789 114.714 251.825 114.75C251.862 114.786 251.911 114.807 251.962 114.807H254.195L252.212 116.79C252.176 116.826 252.156 116.875 252.156 116.926C252.156 116.977 252.176 117.026 252.212 117.063C252.249 117.098 252.298 117.117 252.349 117.117C252.399 117.117 252.448 117.098 252.485 117.063L254.464 115.08V117.309C254.464 117.361 254.485 117.41 254.521 117.446C254.557 117.482 254.606 117.502 254.657 117.502C254.708 117.502 254.757 117.482 254.793 117.446C254.829 117.41 254.849 117.361 254.849 117.309V115.08L256.832 117.063C256.869 117.098 256.918 117.117 256.969 117.117C257.02 117.117 257.068 117.098 257.105 117.063C257.141 117.026 257.161 116.977 257.161 116.926C257.161 116.875 257.141 116.826 257.105 116.79L255.123 114.807H257.352C257.403 114.807 257.452 114.786 257.488 114.75C257.524 114.714 257.544 114.665 257.544 114.614C257.541 114.565 257.52 114.519 257.484 114.485C257.448 114.452 257.401 114.433 257.352 114.433Z" fill="#FC1ABD"/>
<path d="M265.437 114.433H263.208L265.191 112.454C265.226 112.417 265.246 112.368 265.246 112.317C265.246 112.266 265.226 112.217 265.191 112.181C265.173 112.163 265.152 112.148 265.128 112.138C265.105 112.129 265.08 112.124 265.054 112.124C265.029 112.124 265.004 112.129 264.98 112.138C264.957 112.148 264.935 112.163 264.918 112.181L262.935 114.164V111.93C262.935 111.879 262.914 111.83 262.878 111.794C262.842 111.758 262.793 111.738 262.742 111.738C262.691 111.739 262.643 111.759 262.607 111.795C262.571 111.831 262.551 111.88 262.55 111.93V114.164L260.571 112.169C260.553 112.151 260.531 112.137 260.508 112.127C260.485 112.117 260.459 112.112 260.434 112.112C260.409 112.112 260.383 112.117 260.36 112.127C260.337 112.137 260.315 112.151 260.297 112.169C260.262 112.206 260.242 112.255 260.242 112.306C260.242 112.357 260.262 112.406 260.297 112.442L262.28 114.422H260.047C259.996 114.423 259.948 114.443 259.912 114.479C259.876 114.515 259.856 114.563 259.855 114.614C259.855 114.665 259.875 114.714 259.911 114.75C259.947 114.786 259.996 114.807 260.047 114.807H262.28L260.297 116.79C260.262 116.826 260.242 116.875 260.242 116.926C260.242 116.977 260.262 117.026 260.297 117.063C260.334 117.098 260.383 117.117 260.434 117.117C260.485 117.117 260.534 117.098 260.571 117.063L262.55 115.08V117.309C262.55 117.361 262.57 117.41 262.606 117.446C262.642 117.482 262.691 117.502 262.742 117.502C262.793 117.502 262.842 117.482 262.878 117.446C262.914 117.41 262.935 117.361 262.935 117.309V115.08L264.918 117.063C264.955 117.098 265.004 117.117 265.054 117.117C265.105 117.117 265.154 117.098 265.191 117.063C265.226 117.026 265.246 116.977 265.246 116.926C265.246 116.875 265.226 116.826 265.191 116.79L263.208 114.807H265.437C265.488 114.807 265.537 114.786 265.573 114.75C265.61 114.714 265.63 114.665 265.63 114.614C265.627 114.565 265.605 114.519 265.57 114.485C265.534 114.452 265.486 114.433 265.437 114.433Z" fill="#FC1ABD"/>
<path d="M327.422 161.274C327.411 160.809 327.353 160.346 327.249 159.892C326.902 158.59 326.12 157.016 324.834 156.623C323.507 156.216 322.224 155.674 321.007 155.006C320.776 150.878 321.724 146.654 320.692 142.653C320.307 141.19 319.671 139.788 319.502 138.291C319.29 136.427 319.798 134.44 319.055 132.723C318.47 131.367 317.184 130.413 315.802 129.912C314.42 129.411 312.93 129.277 311.463 129.142C309.615 128.992 303.631 128.283 301.545 129.935C301.401 130.047 301.271 130.176 301.16 130.32C301.113 130.384 301.072 130.451 301.036 130.52L301.017 130.551C300.975 130.631 300.94 130.715 300.913 130.801C300.884 130.896 300.862 130.992 300.848 131.09C300.848 131.121 300.848 131.152 300.848 131.183C300.848 131.213 300.848 131.317 300.848 131.387V131.491C300.848 131.56 300.848 131.629 300.848 131.702C300.848 131.776 300.848 131.756 300.848 131.783C300.875 132.13 300.925 132.476 300.925 132.819C300.929 132.99 300.913 133.16 300.878 133.327C300.75 133.781 300.533 134.206 300.239 134.575L300.17 134.675C300.128 134.737 300.085 134.794 300.047 134.856C300.008 134.918 299.978 134.964 299.947 135.018C299.916 135.072 299.885 135.106 299.858 135.156C299.821 135.22 299.788 135.285 299.758 135.353C299.758 135.391 299.716 135.426 299.7 135.464C299.652 135.568 299.613 135.677 299.585 135.788C299.495 136.122 299.487 136.474 299.562 136.812C299.666 137.244 299.844 137.654 300.089 138.025C300.185 138.183 300.289 138.337 300.397 138.491L300.667 138.857C300.616 139.214 300.589 139.574 300.586 139.935C300.586 141.141 300.86 142.331 301.387 143.415C301.914 144.5 302.68 145.45 303.628 146.196C303.78 147.822 303.763 149.459 303.577 151.082C303.543 151.421 303.5 151.764 303.454 152.102C303.408 152.441 303.373 152.665 303.327 152.946C302.764 153.026 302.19 152.983 301.645 152.819C301.393 152.706 301.136 152.607 300.875 152.522C299.754 152.241 298.611 153.358 297.502 153.019C297.502 153.073 297.471 153.123 297.452 153.173C297.22 153.029 296.954 152.95 296.682 152.946C296.023 152.915 295.488 152.437 295.011 151.987L293.544 150.605C293.448 150.52 293.363 150.424 293.29 150.32C293.211 150.17 293.151 150.011 293.113 149.846C292.866 149.049 292.269 148.414 291.692 147.809C291.582 147.671 291.437 147.566 291.272 147.505C291.208 147.495 291.144 147.495 291.08 147.505C291.04 147.451 290.998 147.4 290.953 147.351C290.853 147.236 290.746 147.128 290.633 147.027C289.932 146.381 289.863 145.826 289.255 145.102C288.724 144.412 288.243 143.685 287.815 142.927C287.765 142.522 287.695 142.106 287.611 141.687C287.417 140.726 287.134 139.785 286.767 138.876L285.997 137.17L285.909 137.259C285.351 136.427 284.754 135.973 284.219 136.08C283.322 136.265 282.879 138.006 283.021 140.281L283.329 142.592C283.329 142.649 283.356 142.707 283.372 142.765C283.316 143.039 283.288 143.317 283.287 143.597C283.287 143.92 283.587 144.159 283.745 144.448C283.998 144.839 284.131 145.295 284.13 145.761C284.111 145.926 284.061 146.084 284.053 146.246C284.074 146.608 284.2 146.955 284.415 147.247L286.34 150.481L286.725 151.159L286.748 151.19C286.87 151.426 287.047 151.63 287.264 151.783C287.34 152.593 287.555 153.383 287.899 154.12C287.965 154.266 288.038 154.405 288.115 154.544C288.633 155.394 289.242 156.186 289.932 156.904L290.849 157.932C291.754 158.941 292.658 159.954 293.64 160.885C293.992 161.259 294.416 161.557 294.888 161.759C295.118 161.852 295.37 161.882 295.616 161.846C295.862 161.81 296.094 161.71 296.289 161.555C296.289 162.033 296.289 162.51 296.289 162.988C296.432 162.997 296.57 163.043 296.689 163.123C296.808 163.203 296.903 163.313 296.965 163.443C297.027 163.572 297.053 163.715 297.042 163.858C297.03 164.001 296.98 164.138 296.897 164.255C296.089 166.33 295.273 168.425 294.048 170.284C294.912 170.796 295.714 171.407 296.435 172.106C296.904 172.625 297.32 173.188 297.679 173.788C297.714 174.073 297.741 174.354 297.756 174.636C298.041 179.225 296.266 183.78 294.676 188.155C294.218 189.395 293.717 190.692 293.756 191.982C293.454 192.168 293.166 192.375 292.893 192.602C293.209 193.426 293.086 194.161 293.051 195.043C293.04 195.572 292.931 196.094 292.731 196.583C292.564 196.923 292.379 197.253 292.177 197.573C291.18 199.333 290.96 201.423 290.76 203.433C290.641 204.646 291.111 206.129 290.56 207.215C289.609 209.078 288.766 211.065 288.635 213.137C288.63 213.603 288.571 214.067 288.458 214.519C288.338 214.904 288.127 215.231 288.019 215.609C287.908 216.114 287.882 216.635 287.942 217.149C288.015 218.995 287.741 220.838 287.133 222.582C286.652 223.957 286.121 225.428 286.498 226.841C285.569 227.816 284.995 229.076 284.869 230.418C284.859 230.761 284.818 231.102 284.746 231.438C284.628 231.781 284.474 232.111 284.284 232.42C283.509 233.832 283.146 235.433 283.237 237.041C282.082 238.608 281.504 240.541 281.162 242.462C280.819 244.384 280.669 246.34 280.23 248.238C279.645 250.748 278.586 253.286 278.378 255.858C277.13 256.655 276.591 258.199 276.353 259.658C276.114 261.118 276.075 262.65 275.463 263.998C275.148 264.699 274.693 265.326 274.393 266.043C274.182 266.613 274.028 267.202 273.931 267.802C273.746 268.742 273.584 269.789 273.812 270.69C273.485 271.036 273.104 271.326 272.683 271.549C272.745 271.31 272.795 271.071 272.837 270.829C271.844 271.73 270.042 271.414 269.249 272.496C269.011 272.845 268.918 273.273 268.99 273.689C269.062 274.105 269.293 274.477 269.634 274.725C269.882 274.877 270.151 274.992 270.431 275.068C272.356 275.684 274.335 276.304 276.314 275.977C276.548 275.952 276.775 275.88 276.98 275.765C277.238 275.576 277.449 275.331 277.6 275.049C277.897 274.579 278.193 274.109 278.486 273.64C279.195 273.851 279.916 274.02 280.646 274.144C280.719 274.76 280.773 275.376 280.8 275.992C281.185 276.069 281.701 276.092 281.882 275.734C281.936 275.599 281.959 275.453 281.947 275.307C281.947 275.034 281.986 274.672 282.009 274.302H282.086C283.26 274.349 284.429 274.113 285.493 273.613C285.081 270.201 286.44 266.867 287.618 263.64C288.862 260.244 289.928 256.786 291.003 253.328C291.773 250.895 292.624 248.538 293.378 246.101C294.328 243.02 295.282 239.94 296.239 236.86C296.655 235.504 297.074 234.164 297.552 232.817C298.557 230.09 299.75 227.435 301.121 224.873C301.506 224.145 301.891 223.425 302.207 222.671C302.592 221.75 302.865 220.788 303.173 219.837C303.844 217.885 304.652 215.983 305.591 214.146C305.618 214.095 305.637 214.049 305.664 214.003C305.976 215.278 306.288 216.571 306.496 217.854C306.777 219.426 306.799 221.033 306.561 222.613C306.377 223.687 306.026 224.75 306.069 225.84C306.126 227.345 306.931 228.712 307.328 230.164C307.583 231.25 307.728 232.359 307.759 233.475C307.867 235.208 308.806 237.152 308.144 238.758C306.084 243.844 307.081 249.589 305.907 254.93C305.302 257.672 303.45 260.248 303.597 263.051C303.699 265.04 303.874 267.024 304.12 269.004C304.18 269.628 304.342 270.238 304.602 270.81C304.755 271.11 304.932 271.398 305.129 271.672C304.96 271.738 304.817 271.911 304.694 272.277C304.378 273.239 304.694 274.433 305.549 274.972C305.897 275.158 306.273 275.288 306.661 275.357C307.185 275.506 307.727 275.581 308.271 275.58C308.44 275.571 308.609 275.551 308.775 275.519C309.37 275.769 309.978 275.987 310.596 276.173C310.596 276.331 310.627 276.489 310.646 276.647C310.648 276.729 310.666 276.811 310.7 276.886C310.735 276.961 310.785 277.028 310.847 277.082C310.943 277.127 311.049 277.145 311.155 277.136H313.245C313.245 276.963 313.245 276.786 313.245 276.612C313.485 276.637 313.726 276.612 313.955 276.537C314.184 276.463 314.395 276.342 314.574 276.181C314.759 275.945 314.89 275.672 314.959 275.38C315.529 273.447 316.095 271.513 316.657 269.577C317.331 267.438 317.611 265.194 317.484 262.954C316.741 255.858 318.374 248.738 317.843 241.623C317.523 237.346 317.743 233.046 318.497 228.824C318.67 227.869 318.882 226.898 318.959 225.947C319.128 224.153 318.921 222.339 319.048 220.557C319.09 219.933 319.175 219.313 319.252 218.693C319.779 214.845 320.056 210.967 320.079 207.084C320.068 205.797 319.988 204.512 319.841 203.233C320.242 203.131 320.607 202.917 320.892 202.617C321.235 202.17 321.146 201.543 321.142 200.973C321.142 199.61 321.716 198.324 322.178 197.038C322.771 195.264 323.257 193.456 323.633 191.624C324.031 190.148 324.248 188.628 324.28 187.1C324.28 186.946 324.272 186.792 324.257 186.638C324.402 186.537 324.523 186.405 324.611 186.253C324.712 186.027 324.774 185.786 324.796 185.54C324.935 184.558 325.077 183.573 325.216 182.587C325.318 181.881 325.42 181.176 325.52 180.473L326.744 171.929C326.848 171.185 326.956 170.446 327.06 169.707L327.379 167.497C327.414 167.235 327.453 166.973 327.48 166.727C328.419 165.156 327.522 163.061 327.422 161.274ZM317.207 193.264C316.753 192.186 316.329 191.081 316.437 189.918H316.395C316.496 189.56 316.479 189.179 316.345 188.832C316.225 188.551 316.018 188.313 315.89 188.031C315.754 187.688 315.683 187.323 315.683 186.953C315.587 184.611 315.772 182.266 316.233 179.968C316.283 179.699 316.337 179.426 316.387 179.156C316.549 179.063 316.696 178.947 316.826 178.813C317.029 178.582 317.196 178.323 317.323 178.043C317.758 177.169 318.154 176.28 318.52 175.375C318.64 175.082 318.813 174.743 319.109 174.67C319.048 176.923 319.279 179.221 318.362 181.255C318.188 181.582 318.059 181.932 317.977 182.294C317.893 182.868 318.131 183.449 318.047 184.019C318.004 184.316 317.877 184.589 317.827 184.882C317.789 185.025 317.79 185.177 317.829 185.32C317.868 185.463 317.945 185.594 318.05 185.698C318.101 185.734 318.157 185.762 318.216 185.783C318.193 185.937 318.174 186.095 318.158 186.245C318.127 186.561 318.112 186.857 318.093 187.042C318.004 187.984 317.969 188.93 317.989 189.876C317.989 190.896 318.027 191.917 318.012 192.956C318.026 193.255 317.976 193.553 317.866 193.83C317.789 193.973 317.69 194.103 317.573 194.215C317.461 193.869 317.338 193.565 317.207 193.264Z" fill="url(#paint0_linear)"/>
<path d="M286.815 148.587C287.989 148.346 288.389 145.454 287.708 142.127C287.026 138.8 285.521 136.298 284.346 136.539C283.171 136.779 282.771 139.672 283.453 142.999C284.135 146.326 285.64 148.828 286.815 148.587Z" fill="#FBBEBE"/>
<path d="M304.756 272.35C304.44 273.305 304.756 274.498 305.61 275.018C305.957 275.203 306.329 275.333 306.715 275.403C307.238 275.551 307.778 275.625 308.321 275.623C308.987 275.592 309.626 275.33 310.292 275.238C310.369 275.218 310.451 275.229 310.519 275.268C310.553 275.304 310.578 275.347 310.592 275.394C310.607 275.44 310.611 275.49 310.604 275.538C310.611 275.917 310.64 276.294 310.689 276.67C310.689 276.753 310.708 276.834 310.742 276.909C310.777 276.984 310.827 277.051 310.889 277.105C310.985 277.15 311.091 277.169 311.197 277.159H313.284C313.331 275.326 313.13 273.494 312.687 271.714C312.658 271.578 312.606 271.448 312.533 271.329C312.356 271.135 312.123 271.001 311.867 270.944C311.357 270.732 310.806 270.636 310.254 270.663C309.58 270.752 309.018 271.187 308.444 271.549C307.87 271.911 307.089 272.23 306.392 272.046C305.695 271.861 305.114 271.279 304.756 272.35Z" fill="#3F3D56"/>
<path d="M274.116 270.659C273.529 271.288 272.809 271.777 272.01 272.092L271.655 272.261C271.606 272.28 271.565 272.313 271.536 272.357C271.529 272.387 271.529 272.418 271.536 272.448C271.543 272.478 271.556 272.506 271.575 272.531C271.869 272.987 272.305 273.334 272.815 273.519C273.325 273.705 273.882 273.719 274.401 273.559C274.63 273.501 274.842 273.391 275.02 273.235C275.314 272.887 275.482 272.451 275.498 271.995C275.614 271.526 275.594 271.033 275.44 270.575C274.905 269.369 274.709 269.916 274.116 270.659Z" fill="#FBBEBE"/>
<path d="M282.116 275.403C282.128 275.549 282.106 275.695 282.051 275.831C281.87 276.185 281.366 276.166 280.973 276.089C280.913 274.782 280.755 273.482 280.499 272.2C279.752 272.165 279.213 272.874 278.813 273.509L277.781 275.145C277.632 275.427 277.421 275.672 277.165 275.861C276.959 275.974 276.733 276.046 276.499 276.073C274.528 276.401 272.537 275.781 270.635 275.165C270.355 275.089 270.087 274.975 269.838 274.826C269.499 274.576 269.269 274.205 269.197 273.791C269.125 273.376 269.217 272.949 269.453 272.6C270.25 271.522 272.04 271.83 273.034 270.937C272.93 271.565 272.76 272.181 272.526 272.773C273.854 272.573 274.747 271.356 275.818 270.544C276.086 270.316 276.41 270.162 276.757 270.097C277.016 270.076 277.278 270.103 277.527 270.178C278.761 270.489 279.916 271.057 280.915 271.845C281.319 272.165 281.951 272.616 282.128 273.108C282.317 273.698 282.116 274.776 282.116 275.403Z" fill="#3F3D56"/>
<path d="M308.602 148.36C312.995 148.36 316.557 144.798 316.557 140.405C316.557 136.011 312.995 132.449 308.602 132.449C304.209 132.449 300.648 136.011 300.648 140.405C300.648 144.798 304.209 148.36 308.602 148.36Z" fill="#FBBEBE"/>
<path d="M324.272 187.373C324.24 188.894 324.024 190.405 323.629 191.874C323.253 193.699 322.767 195.499 322.174 197.265C321.716 198.547 321.142 199.833 321.146 201.193C321.146 201.759 321.238 202.386 320.892 202.833C320.583 203.146 320.194 203.369 319.768 203.476C319.555 203.532 319.358 203.638 319.194 203.785C319.029 203.931 318.901 204.114 318.821 204.319C318.459 203.779 318.188 203.183 318.02 202.556C317.329 200.44 316.687 198.314 316.095 196.175C316.04 196.052 316.017 195.918 316.026 195.784C316.036 195.649 316.078 195.52 316.148 195.405C316.246 195.32 316.36 195.256 316.483 195.217C316.878 195.056 317.24 194.823 317.55 194.531C317.696 194.402 317.816 194.246 317.904 194.073C318.016 193.797 318.067 193.5 318.054 193.203C318.054 192.182 318.054 191.166 318.027 190.145C318.011 189.203 318.047 188.261 318.135 187.323C318.135 187.138 318.17 186.842 318.201 186.526C318.258 185.921 318.374 185.221 318.701 184.986C319.19 184.658 320.653 185.097 321.208 185.174C322.163 185.305 323.133 185.459 324.065 185.64C324.2 186.208 324.27 186.789 324.272 187.373Z" fill="#3F3D56"/>
<path d="M292.154 149.311C291.846 149.927 291.107 150.223 290.537 150.612L288.585 151.952C288.454 152.07 288.302 152.16 288.135 152.217C287.969 152.274 287.794 152.296 287.618 152.283C287.46 152.225 287.314 152.135 287.19 152.019C287.067 151.904 286.968 151.764 286.898 151.61C286.9 151.599 286.9 151.589 286.898 151.579L286.494 150.901L284.569 147.674C284.355 147.385 284.231 147.04 284.211 146.681C284.211 146.515 284.269 146.361 284.284 146.196C284.289 145.731 284.155 145.275 283.899 144.887C283.745 144.598 283.437 144.359 283.445 144.036C283.43 143.611 283.504 143.187 283.66 142.792C283.862 142.426 284.152 142.117 284.504 141.891C284.685 141.76 284.869 141.637 285.062 141.506C285.164 141.436 285.277 141.384 285.397 141.352C285.716 141.286 286.032 141.552 286.356 141.564C287.746 142.496 288.281 144.259 289.374 145.53C289.99 146.254 290.052 146.808 290.749 147.455C290.86 147.555 290.968 147.663 291.072 147.775C291.21 147.925 291.326 148.093 291.419 148.275C291.546 148.606 292.312 148.995 292.154 149.311Z" fill="#3F3D56"/>
<path d="M305.807 148.364C306.38 149.577 306.827 150.909 306.662 152.241C306.628 152.602 306.513 152.951 306.327 153.261C305.772 154.112 304.609 154.266 303.597 154.316C303.383 154.299 303.169 154.323 302.965 154.389C302.761 154.456 302.573 154.562 302.411 154.702C302.276 154.898 302.209 155.134 302.223 155.372C302.236 155.611 302.328 155.838 302.484 156.018C302.809 156.366 303.214 156.63 303.662 156.788C305.264 157.493 306.993 158.075 308.733 157.913C309.541 157.836 310.327 157.601 311.132 157.482C312.009 157.387 312.891 157.338 313.773 157.335C314.82 157.297 315.864 157.193 316.907 157.089L319.671 156.815C319.822 156.818 319.969 156.764 320.083 156.665C320.287 156.427 320.026 156.076 319.772 155.895C318.305 154.809 316.437 154.062 315.602 152.43C315.217 151.66 315.097 150.743 314.812 149.912C314.528 149.08 314.073 148.329 313.896 147.482C313.802 146.739 313.759 145.99 313.769 145.241C313.779 144.486 313.504 143.754 312.999 143.192C312.448 142.68 311.651 142.549 310.904 142.519C309.064 142.438 307.104 142.877 305.799 144.174C305.449 144.525 305.148 144.944 304.786 145.26C304.425 145.576 303.932 145.668 304.17 146.084C304.409 146.5 304.879 146.758 305.133 147.124C305.39 147.518 305.616 147.933 305.807 148.364Z" fill="#FBBEBE"/>
<path d="M321.489 159.565C321.003 162.53 320.214 165.437 319.132 168.24C318.589 169.506 318.126 170.805 317.746 172.129C317.45 173.323 317.508 174.601 317.234 175.798C316.895 177.289 316.557 178.783 316.283 180.284C315.825 182.577 315.641 184.917 315.737 187.254C315.737 187.622 315.808 187.986 315.944 188.328C316.071 188.605 316.276 188.844 316.395 189.129C316.484 189.379 316.521 189.645 316.502 189.91C316.484 190.175 316.41 190.434 316.287 190.669C316.09 191.11 315.822 191.516 315.494 191.87C311.906 192.941 308.067 192.59 304.328 192.818C300.882 193.026 297.398 193.734 294.002 193.145C293.617 191.605 294.26 189.991 294.811 188.49C296.408 184.127 298.176 179.584 297.891 175.013C297.861 174.48 297.801 173.949 297.71 173.423C297.152 170.184 297.76 166.831 298.734 163.692C299.338 161.736 299.312 159.653 299.173 157.616C299.104 156.955 299.095 156.289 299.146 155.626C299.202 154.949 299.453 154.302 299.87 153.766C299.87 153.739 299.904 153.712 299.924 153.685C299.943 153.658 300.093 153.662 300.212 153.685C300.243 153.698 300.276 153.705 300.309 153.705C300.342 153.705 300.375 153.698 300.405 153.685L300.447 153.658C300.464 153.646 300.483 153.64 300.503 153.64C300.523 153.64 300.543 153.646 300.559 153.658C300.648 153.712 300.698 153.897 300.89 153.931C301.175 153.975 301.461 154.002 301.749 154.012C302.095 154.023 302.438 154.072 302.773 154.159H302.819C303.32 154.243 303.834 154.199 304.313 154.032C304.632 153.952 304.94 153.833 305.229 153.677C305.314 153.585 305.845 153.5 305.953 153.435C306.304 153.223 306.226 152.23 306.3 151.821C306.34 151.412 306.437 151.01 306.588 150.628C306.764 150.345 307.006 150.11 307.293 149.943C307.58 149.776 307.904 149.682 308.236 149.669C308.899 149.653 309.562 149.713 310.211 149.846C311.648 150.05 313.118 150.016 314.528 150.347C315.236 150.512 316.01 150.763 316.661 150.439C316.838 150.481 316.865 150.635 316.865 150.824C316.848 151.003 316.812 151.18 316.757 151.352C316.51 152.414 317.346 153.392 318.116 154.163C318.441 154.526 318.825 154.831 319.252 155.067C319.637 155.244 320.022 155.318 320.407 155.51C320.719 155.677 320.983 155.919 321.177 156.215C321.399 156.554 321.548 156.936 321.616 157.335C321.698 158.08 321.655 158.834 321.489 159.565Z" fill="#3F3D56"/>
<path opacity="0.1" d="M321.489 159.565C321.003 162.53 320.214 165.437 319.132 168.24C318.589 169.506 318.126 170.805 317.746 172.129C317.45 173.323 317.508 174.601 317.234 175.799C316.895 177.289 316.557 178.783 316.283 180.284C316.202 180.331 316.118 180.373 316.033 180.411C315.554 180.64 315.046 180.803 314.524 180.897C313.585 181.01 312.635 180.979 311.705 180.804L306.211 180.069C304.016 179.772 301.679 179.414 300.051 177.928C299.146 177.112 298.553 176.033 297.902 174.994C297.872 174.461 297.812 173.93 297.721 173.404C297.163 170.165 297.771 166.811 298.746 163.673C299.35 161.717 299.323 159.634 299.184 157.597C299.116 156.936 299.107 156.27 299.158 155.607C299.213 154.929 299.465 154.283 299.881 153.747C299.994 153.714 300.108 153.688 300.224 153.67C300.302 153.654 300.38 153.644 300.459 153.639H300.571C300.7 153.639 300.829 153.655 300.956 153.685C301.218 153.769 301.475 153.868 301.726 153.982H301.772C302.102 154.09 302.449 154.14 302.796 154.128C303.304 154.128 303.828 154.047 304.336 154.012C304.964 153.914 305.606 154.03 306.161 154.34C306.519 154.627 306.858 154.937 307.178 155.268C307.563 155.57 307.996 155.806 308.46 155.965C311.774 157.23 315.451 157.152 318.709 155.749C319.022 155.571 319.377 155.481 319.737 155.487C320.003 155.539 320.255 155.647 320.476 155.803C320.707 155.938 320.934 156.069 321.169 156.188C321.391 156.527 321.541 156.909 321.608 157.308C321.696 158.062 321.656 158.825 321.489 159.565Z" fill="black"/>
<path d="M324.842 157.016C323.309 156.547 321.836 155.901 320.453 155.09C320.231 154.935 319.979 154.828 319.714 154.775C319.353 154.77 318.997 154.861 318.682 155.037C315.425 156.44 311.749 156.517 308.437 155.252C307.974 155.092 307.541 154.856 307.154 154.555C306.834 154.226 306.495 153.916 306.138 153.627C304.871 152.807 303.119 153.77 301.702 153.242C301.451 153.13 301.194 153.031 300.932 152.946C299.812 152.665 298.672 153.781 297.571 153.442C297.162 154.556 296.859 155.706 296.666 156.877C296.51 158.222 296.426 159.574 296.416 160.928C296.416 161.74 296.378 162.553 296.416 163.365C296.552 163.387 296.681 163.438 296.797 163.512C296.912 163.587 297.011 163.685 297.086 163.8C297.137 163.934 297.157 164.078 297.147 164.221C297.136 164.364 297.094 164.503 297.024 164.628C296.22 166.696 295.404 168.787 294.183 170.639C295.043 171.151 295.842 171.761 296.562 172.456C297.91 173.881 298.572 175.879 300.028 177.196C301.668 178.679 304.005 179.041 306.188 179.333L311.682 180.069C312.613 180.243 313.564 180.275 314.504 180.165C315.026 180.07 315.532 179.905 316.01 179.676C316.322 179.545 316.607 179.357 316.849 179.121C317.052 178.891 317.22 178.631 317.346 178.351C317.781 177.481 318.178 176.592 318.543 175.691C318.67 175.371 318.863 174.998 319.209 174.971C321.25 173.13 323.175 171.243 325.216 169.403C326.036 168.723 326.771 167.947 327.406 167.092C328.419 165.595 327.499 163.473 327.406 161.663C327.395 161.2 327.337 160.74 327.233 160.289C326.902 158.976 326.124 157.405 324.842 157.016Z" fill="#FC1ABD"/>
<path opacity="0.1" d="M292.154 149.311C291.846 149.927 291.107 150.224 290.537 150.612L288.585 151.952C288.454 152.07 288.302 152.16 288.135 152.217C287.969 152.274 287.794 152.296 287.618 152.284C287.46 152.225 287.314 152.135 287.19 152.019C287.067 151.904 286.967 151.764 286.898 151.61C286.898 151.521 286.898 151.425 286.898 151.332C286.884 151.021 286.925 150.709 287.022 150.412C287.213 149.977 287.509 149.596 287.884 149.303C288.609 148.617 289.471 148.092 290.414 147.763C290.561 147.706 290.72 147.69 290.876 147.717C290.936 147.732 290.993 147.757 291.045 147.79C291.183 147.94 291.299 148.109 291.392 148.291C291.546 148.606 292.312 148.995 292.154 149.311Z" fill="black"/>
<path d="M296.751 153.369C296.097 153.339 295.561 152.865 295.084 152.414L293.625 151.059C293.527 150.976 293.442 150.881 293.371 150.774C293.292 150.624 293.232 150.465 293.194 150.301C292.884 149.523 292.399 148.827 291.777 148.267C291.668 148.13 291.523 148.025 291.357 147.967C291.2 147.938 291.039 147.954 290.891 148.013C289.948 148.342 289.086 148.867 288.361 149.554C287.987 149.846 287.69 150.227 287.499 150.662C287.402 150.959 287.36 151.271 287.376 151.583C287.385 152.6 287.613 153.604 288.046 154.525C288.111 154.667 288.184 154.809 288.261 154.948C288.775 155.797 289.382 156.586 290.071 157.301L290.987 158.325C291.888 159.334 292.789 160.343 293.767 161.271C294.118 161.645 294.543 161.941 295.015 162.141C295.252 162.238 295.511 162.267 295.763 162.226C296.016 162.186 296.252 162.076 296.447 161.91C296.631 161.696 296.77 161.447 296.855 161.178C297.448 159.638 298.01 158.036 298.045 156.377C298.053 155.712 298.025 155.047 297.96 154.386C297.902 153.685 297.406 153.412 296.751 153.369Z" fill="#FC1ABD"/>
<path d="M320.083 207.276C320.061 211.15 319.786 215.017 319.26 218.855C319.183 219.475 319.098 220.095 319.055 220.715C318.928 222.513 319.136 224.319 318.967 226.105C318.878 227.072 318.678 228.031 318.509 228.974C317.756 233.184 317.536 237.473 317.854 241.738C318.386 248.835 316.757 255.935 317.496 263.012C317.586 264.389 317.509 265.771 317.269 267.129C317.131 267.971 316.932 268.803 316.672 269.616C316.11 271.544 315.545 273.469 314.978 275.392C314.911 275.684 314.78 275.958 314.593 276.193C314.397 276.362 314.166 276.488 313.917 276.562C313.668 276.636 313.406 276.656 313.149 276.62C310.928 276.551 308.837 275.592 306.819 274.656C306.587 274.565 306.373 274.435 306.184 274.271C305.765 273.836 305.799 273.151 305.614 272.577C305.43 272.003 304.929 271.464 304.644 270.875C304.41 270.318 304.268 269.726 304.224 269.123C303.968 267.152 303.793 265.172 303.701 263.186C303.554 260.39 305.403 257.818 306.011 255.1C307.166 249.755 306.188 244.026 308.24 238.954C308.887 237.353 307.948 235.412 307.855 233.687C307.822 232.574 307.677 231.467 307.424 230.383C307.039 228.935 306.227 227.572 306.169 226.071C306.126 224.985 306.477 223.926 306.658 222.855C306.898 221.28 306.876 219.676 306.592 218.108C306.388 216.814 306.076 215.52 305.765 214.257L305.695 214.4C304.757 216.233 303.95 218.131 303.281 220.079C302.973 221.023 302.704 221.985 302.319 222.902C302.003 223.672 301.614 224.376 301.233 225.1C299.866 227.653 298.676 230.297 297.671 233.013C297.194 234.345 296.774 235.708 296.358 237.045L293.505 246.286C292.735 248.715 291.892 251.064 291.138 253.49C290.071 256.955 289.005 260.39 287.765 263.779C286.61 266.994 285.235 270.324 285.647 273.721C284.586 274.22 283.42 274.456 282.247 274.41C280.263 274.234 278.316 273.762 276.472 273.008C275.737 272.735 274.974 272.427 274.478 271.822C273.623 270.779 273.835 269.25 274.093 267.922C274.19 267.323 274.345 266.735 274.555 266.166C274.847 265.457 275.325 264.83 275.625 264.129C276.23 262.785 276.268 261.264 276.507 259.805C276.745 258.346 277.277 256.805 278.524 256.012C278.736 253.448 279.791 250.918 280.372 248.411C280.811 246.513 280.958 244.561 281.304 242.635C281.651 240.71 282.209 238.785 283.372 237.226C283.28 235.618 283.643 234.016 284.419 232.605C284.606 232.295 284.76 231.966 284.877 231.623C284.949 231.289 284.99 230.948 285 230.607C285.128 229.268 285.7 228.012 286.625 227.037C286.24 225.632 286.775 224.165 287.257 222.802C287.863 221.062 288.137 219.224 288.065 217.384C288.005 216.87 288.03 216.35 288.138 215.844C288.246 215.459 288.458 215.131 288.581 214.762C288.691 214.309 288.749 213.845 288.754 213.379C288.904 211.296 289.748 209.332 290.679 207.473C291.234 206.387 290.764 204.912 290.88 203.703C291.08 201.693 291.299 199.614 292.296 197.862C292.481 197.531 292.681 197.215 292.847 196.872C293.048 196.383 293.156 195.861 293.167 195.332C293.201 194.45 293.324 193.719 293.009 192.899C295.069 191.185 297.879 190.704 300.559 190.588C303.239 190.473 305.949 190.715 308.571 190.145C309.341 189.972 310.111 189.733 310.924 189.618C312.768 189.348 314.639 189.768 316.46 190.184C316.333 191.339 316.757 192.448 317.23 193.522C319.079 197.874 320.049 202.548 320.083 207.276Z" fill="#33313F"/>
<path opacity="0.1" d="M311.016 208.158L306.592 218.108C306.388 216.814 306.076 215.52 305.764 214.257L305.695 214.4V214.192L308.105 208.89L311.016 208.158Z" fill="black"/>
<path opacity="0.1" d="M324.272 187.373C324.017 187.564 323.713 187.678 323.395 187.7C322.907 187.718 322.42 187.651 321.955 187.504L318.489 186.638C318.381 186.611 318.275 186.573 318.174 186.526C318.231 185.921 318.347 185.221 318.674 184.986C319.163 184.658 320.626 185.097 321.181 185.174C322.136 185.305 323.106 185.459 324.038 185.64C324.182 186.207 324.261 186.788 324.272 187.373Z" fill="black"/>
<path d="M327.202 164.463C327.276 164.782 327.38 165.098 327.441 165.421C327.545 166.215 327.517 167.02 327.36 167.805L327.045 170.007L326.729 172.221L325.508 180.743L325.208 182.853L324.784 185.798C324.764 186.043 324.702 186.283 324.6 186.507C324.474 186.716 324.297 186.891 324.087 187.015C323.877 187.139 323.639 187.21 323.395 187.219C322.907 187.235 322.42 187.168 321.955 187.023L318.489 186.153C318.337 186.126 318.193 186.066 318.066 185.979C317.96 185.876 317.884 185.746 317.844 185.603C317.805 185.46 317.804 185.31 317.843 185.167C317.893 184.874 318.02 184.601 318.062 184.308C318.147 183.738 317.908 183.153 317.993 182.587C318.076 182.227 318.205 181.878 318.378 181.551C319.533 178.998 318.863 176.018 319.256 173.246C319.609 171.064 320.531 169.013 321.928 167.3C322.79 166.219 323.78 165.247 324.877 164.405C325.308 164.07 325.993 163.381 326.536 163.25C327.233 163.103 327.087 163.977 327.202 164.463Z" fill="#FC1ABD"/>
<path d="M300.979 131.294C300.725 132.103 301.121 132.993 300.94 133.817C300.744 134.725 299.889 135.357 299.646 136.269C299.261 137.659 300.44 138.926 301.302 140.081C304.498 144.371 304.078 150.308 302.985 155.541C302.105 159.739 300.888 163.86 299.346 167.863C298.865 169.106 298.334 170.369 297.386 171.301C299.158 170.793 301.04 170.281 302.815 170.774C305.064 171.397 307.004 173.581 309.284 173.084C310.654 172.78 311.617 171.563 312.849 170.889C315.159 169.645 317.943 170.427 320.518 170.828C321.074 170.959 321.654 170.929 322.193 170.743C322.605 170.521 322.955 170.2 323.21 169.807C324.359 168.332 325.048 166.551 325.189 164.686C325.25 163.758 325.113 162.827 324.787 161.955C324.461 161.083 323.954 160.291 323.298 159.63C322.752 159.114 322.097 158.699 321.677 158.09C321.269 157.38 321.05 156.576 321.042 155.757C320.738 151.521 321.77 147.197 320.707 143.1C320.322 141.641 319.695 140.243 319.525 138.749C319.313 136.889 319.818 134.899 319.078 133.197C318.497 131.845 317.215 130.886 315.833 130.393C314.451 129.901 312.972 129.762 311.505 129.623C309.395 129.446 301.86 128.541 300.979 131.294Z" fill="#33313F"/>
<g opacity="0.1">
<path opacity="0.1" d="M302.985 155.541C302.109 159.722 300.899 163.826 299.365 167.812C299.631 167.285 299.854 166.73 300.066 166.18C301.61 162.178 302.827 158.057 303.705 153.858C304.802 148.622 305.222 142.692 302.026 138.398C301.256 137.374 300.266 136.265 300.301 135.064C300.016 135.427 299.795 135.836 299.646 136.273C299.261 137.663 300.44 138.93 301.302 140.085C304.498 144.371 304.078 150.308 302.985 155.541Z" fill="black"/>
<path opacity="0.1" d="M300.986 133.428C301.295 133.044 301.526 132.603 301.664 132.13C301.724 131.558 301.708 130.981 301.618 130.413C301.321 130.636 301.099 130.943 300.979 131.294C300.752 131.976 301.013 132.715 300.986 133.428Z" fill="black"/>
<path opacity="0.1" d="M323.934 168.113C323.679 168.504 323.329 168.825 322.917 169.045C322.379 169.235 321.797 169.264 321.242 169.129C318.667 168.744 315.852 167.951 313.573 169.195C312.337 169.865 311.378 171.081 310.004 171.39C307.728 171.898 305.788 169.715 303.539 169.079C301.945 168.636 300.266 169.002 298.661 169.464C298.342 170.145 297.911 170.767 297.386 171.305C299.158 170.797 301.04 170.284 302.815 170.777C305.064 171.401 307.004 173.584 309.284 173.088C310.654 172.783 311.617 171.567 312.849 170.893C315.159 169.649 317.943 170.431 320.519 170.831C321.074 170.962 321.654 170.933 322.193 170.747C322.605 170.525 322.955 170.203 323.21 169.811C323.908 168.89 324.446 167.86 324.804 166.761C324.546 167.232 324.256 167.684 323.934 168.113Z" fill="black"/>
</g>
<ellipse cx="162.064" cy="127.682" rx="16" ry="0.5" fill="#C4C4C4"/>
<defs>
<linearGradient id="paint0_linear" x1="268.991" y1="202.994" x2="327.899" y2="202.994" gradientUnits="userSpaceOnUse">
<stop stop-color="#808080" stop-opacity="0.25"/>
<stop offset="0.54" stop-color="#808080" stop-opacity="0.12"/>
<stop offset="1" stop-color="#808080" stop-opacity="0.1"/>
</linearGradient>
</defs>
</svg>
