  <svg width="442" height="344" viewBox="0 0 442 344" fill="none" xmlns="http://www.w3.org/2000/svg">
<path d="M21.1527 109.339C20.8142 109.339 20.4786 109.276 20.1633 109.153C19.6533 108.957 19.2151 108.612 18.9067 108.162C18.5983 107.712 18.4343 107.179 18.4367 106.633V78.3972C18.4356 77.4414 18.0546 76.5251 17.3774 75.8492C16.7002 75.1734 15.782 74.7932 14.8242 74.7921H9.0298C6.63577 74.7894 4.34055 73.8392 2.64771 72.15C0.95487 70.4607 0.0026526 68.1703 -3.05176e-05 65.7813V9.0108C0.0026542 6.62181 0.95487 4.33144 2.64771 2.64216C4.34055 0.95289 6.63577 0.00267747 9.0298 0H213.414C215.808 0.00268064 218.103 0.952891 219.796 2.64216C221.489 4.33144 222.441 6.62181 222.444 9.0108V65.7813C222.441 68.1703 221.489 70.4607 219.796 72.1499C218.103 73.8392 215.808 74.7894 213.414 74.7921H55.6585C55.1577 74.7927 54.6625 74.8969 54.2042 75.0981C53.7458 75.2993 53.3342 75.5932 52.9954 75.9611L23.1421 108.46C22.8901 108.737 22.5829 108.958 22.2403 109.109C21.8978 109.26 21.5273 109.339 21.1527 109.339ZM9.0298 1.2007C6.95478 1.20304 4.96541 2.02664 3.49815 3.49081C2.03088 4.95498 1.20555 6.94015 1.2032 9.0108V65.7813C1.20555 67.852 2.03089 69.8371 3.49815 71.3013C4.96541 72.7655 6.95478 73.5891 9.0298 73.5914H14.8242C16.101 73.5929 17.325 74.0996 18.2279 75.0006C19.1307 75.9015 19.6385 77.123 19.6399 78.3971V106.633C19.6399 106.936 19.7316 107.232 19.9028 107.482C20.0741 107.731 20.317 107.924 20.5997 108.034C20.8824 108.143 21.1917 108.165 21.4871 108.097C21.7825 108.028 22.0502 107.872 22.2552 107.649L52.1085 75.1497C52.5601 74.6592 53.1088 74.2675 53.7198 73.9993C54.3308 73.731 54.991 73.5922 55.6585 73.5914H213.414C215.489 73.5891 217.478 72.7655 218.946 71.3013C220.413 69.8371 221.238 67.852 221.241 65.7813V9.0108C221.238 6.94015 220.413 4.95498 218.946 3.49081C217.478 2.02664 215.489 1.20304 213.414 1.2007H9.0298Z" fill="#FFA9E7"/>
<path d="M22.1491 25.5689C26.513 25.5689 30.0506 22.0388 30.0506 17.6841C30.0506 13.3294 26.513 9.79929 22.1491 9.79929C17.7853 9.79929 14.2477 13.3294 14.2477 17.6841C14.2477 22.0388 17.7853 25.5689 22.1491 25.5689Z" fill="#FFA9E7"/>
<path d="M204.196 61.3134H18.2482C17.6944 61.314 17.1459 61.2058 16.634 60.9947C16.1222 60.7837 15.657 60.474 15.2652 60.0835C14.8733 59.6929 14.5624 59.2291 14.3503 58.7186C14.1383 58.2081 14.0291 57.6608 14.0291 57.1082C14.0291 56.5555 14.1383 56.0082 14.3503 55.4977C14.5624 54.9872 14.8733 54.5234 15.2652 54.1328C15.657 53.7423 16.1222 53.4326 16.634 53.2216C17.1459 53.0105 17.6944 52.9023 18.2482 52.9029H204.196C204.75 52.9023 205.298 53.0105 205.81 53.2216C206.322 53.4326 206.787 53.7423 207.179 54.1328C207.571 54.5234 207.882 54.9872 208.094 55.4977C208.306 56.0082 208.415 56.5555 208.415 57.1082C208.415 57.6608 208.306 58.2081 208.094 58.7186C207.882 59.2291 207.571 59.6929 207.179 60.0835C206.787 60.474 206.322 60.7837 205.81 60.9947C205.298 61.2058 204.75 61.314 204.196 61.3134V61.3134Z" fill="#FFA9E7"/>
<path d="M143.618 43.4412H18.2482C17.6944 43.4418 17.1459 43.3335 16.634 43.1225C16.1222 42.9114 15.657 42.6018 15.2652 42.2112C14.8733 41.8207 14.5624 41.3569 14.3503 40.8463C14.1383 40.3358 14.0291 39.7886 14.0291 39.2359C14.0291 38.6833 14.1383 38.136 14.3503 37.6255C14.5624 37.1149 14.8733 36.6511 15.2652 36.2606C15.657 35.87 16.1222 35.5604 16.634 35.3493C17.1459 35.1383 17.6944 35.03 18.2482 35.0307H143.618C144.172 35.03 144.72 35.1383 145.232 35.3493C145.744 35.5604 146.209 35.87 146.601 36.2606C146.993 36.6511 147.304 37.1149 147.516 37.6255C147.728 38.136 147.837 38.6833 147.837 39.2359C147.837 39.7886 147.728 40.3358 147.516 40.8463C147.304 41.3569 146.993 41.8207 146.601 42.2112C146.209 42.6018 145.744 42.9114 145.232 43.1225C144.72 43.3335 144.172 43.4418 143.618 43.4412Z" fill="#FFA9E7"/>
<path d="M21.1527 309.613C20.8142 309.613 20.4787 309.55 20.1633 309.427C19.6534 309.231 19.2151 308.886 18.9067 308.436C18.5983 307.986 18.4344 307.453 18.4367 306.908V278.671C18.4356 277.716 18.0547 276.799 17.3774 276.123C16.7002 275.448 15.782 275.067 14.8242 275.066H9.02983C6.6358 275.064 4.34059 274.113 2.64775 272.424C0.95491 270.735 0.00268949 268.444 0 266.056V209.285C0.00268471 206.896 0.954902 204.606 2.64774 202.916C4.34058 201.227 6.6358 200.277 9.02983 200.274H213.414C215.808 200.277 218.103 201.227 219.796 202.916C221.489 204.606 222.441 206.896 222.444 209.285V266.056C222.441 268.444 221.489 270.735 219.796 272.424C218.103 274.113 215.808 275.064 213.414 275.066H55.6585C55.1578 275.067 54.6626 275.171 54.2042 275.372C53.7458 275.573 53.3343 275.867 52.9955 276.235L23.1422 308.734C22.8901 309.011 22.5829 309.232 22.2404 309.383C21.8978 309.535 21.5274 309.613 21.1527 309.613V309.613ZM9.02983 201.475C6.95481 201.477 4.96544 202.301 3.49818 203.765C2.03091 205.229 1.20557 207.214 1.20323 209.285V266.056C1.20558 268.126 2.03092 270.111 3.49818 271.575C4.96544 273.04 6.95481 273.863 9.02983 273.866H14.8242C16.101 273.867 17.3251 274.374 18.2279 275.275C19.1307 276.176 19.6385 277.397 19.6399 278.671V306.908C19.6399 307.21 19.7316 307.506 19.9028 307.756C20.0741 308.006 20.317 308.198 20.5997 308.308C20.8824 308.417 21.1917 308.439 21.4871 308.371C21.7825 308.302 22.0503 308.146 22.2552 307.923L52.1085 275.424C52.5602 274.933 53.1088 274.542 53.7198 274.273C54.3309 274.005 54.991 273.866 55.6585 273.866H213.414C215.489 273.863 217.478 273.04 218.946 271.575C220.413 270.111 221.238 268.126 221.241 266.056V209.285C221.238 207.214 220.413 205.229 218.946 203.765C217.478 202.301 215.489 201.477 213.414 201.475L9.02983 201.475Z" fill="#FFA9E7"/>
<path d="M322.973 205.534C322.599 205.534 322.228 205.455 321.886 205.304C321.543 205.152 321.236 204.931 320.984 204.655L291.131 172.156C290.792 171.788 290.38 171.494 289.922 171.293C289.464 171.092 288.968 170.988 288.468 170.987H130.712C128.318 170.984 126.023 170.034 124.33 168.345C122.637 166.655 121.685 164.365 121.682 161.976V105.206C121.685 102.817 122.637 100.526 124.33 98.837C126.023 97.1477 128.318 96.1975 130.712 96.1948H335.096C337.49 96.1975 339.786 97.1477 341.478 98.8369C343.171 100.526 344.124 102.817 344.126 105.206V161.976C344.124 164.365 343.171 166.655 341.478 168.345C339.786 170.034 337.49 170.984 335.096 170.987H329.302C328.344 170.988 327.426 171.368 326.749 172.044C326.072 172.72 325.691 173.636 325.69 174.592V202.828C325.692 203.373 325.528 203.906 325.22 204.356C324.911 204.806 324.473 205.152 323.963 205.347C323.648 205.47 323.312 205.534 322.973 205.534V205.534ZM130.712 97.3955C128.637 97.3978 126.648 98.2214 125.181 99.6856C123.713 101.15 122.888 103.135 122.886 105.206V161.976C122.888 164.047 123.713 166.032 125.181 167.496C126.648 168.96 128.637 169.784 130.712 169.786H288.468C289.135 169.787 289.795 169.926 290.406 170.194C291.017 170.462 291.566 170.854 292.018 171.345L321.871 203.843C322.076 204.067 322.344 204.223 322.639 204.291C322.935 204.36 323.244 204.338 323.527 204.228C323.809 204.119 324.052 203.926 324.223 203.676C324.395 203.427 324.486 203.131 324.486 202.828V174.592C324.488 173.318 324.996 172.096 325.898 171.195C326.801 170.294 328.025 169.788 329.302 169.786H335.096C337.171 169.784 339.161 168.96 340.628 167.496C342.095 166.032 342.921 164.047 342.923 161.976V105.206C342.921 103.135 342.095 101.15 340.628 99.6856C339.161 98.2214 337.171 97.3978 335.096 97.3955L130.712 97.3955Z" fill="#FC1ABD"/>
<path d="M22.1491 225.843C26.513 225.843 30.0506 222.313 30.0506 217.958C30.0506 213.604 26.513 210.073 22.1491 210.073C17.7853 210.073 14.2477 213.604 14.2477 217.958C14.2477 222.313 17.7853 225.843 22.1491 225.843Z" fill="#FFA9E7"/>
<path d="M204.196 261.588H18.2482C17.6944 261.588 17.1459 261.48 16.634 261.269C16.1222 261.058 15.657 260.748 15.2652 260.358C14.8733 259.967 14.5624 259.503 14.3503 258.993C14.1383 258.482 14.0291 257.935 14.0291 257.382C14.0291 256.83 14.1383 256.282 14.3503 255.772C14.5624 255.261 14.8733 254.798 15.2652 254.407C15.657 254.016 16.1222 253.707 16.634 253.496C17.1459 253.285 17.6944 253.176 18.2482 253.177H204.196C205.313 253.177 206.385 253.62 207.176 254.409C207.966 255.197 208.41 256.267 208.41 257.382C208.41 258.498 207.966 259.567 207.176 260.356C206.385 261.144 205.313 261.588 204.196 261.588Z" fill="#FFA9E7"/>
<path d="M143.618 243.715H18.2482C17.6944 243.716 17.1459 243.608 16.634 243.397C16.1222 243.186 15.657 242.876 15.2652 242.485C14.8733 242.095 14.5624 241.631 14.3503 241.121C14.1383 240.61 14.0291 240.063 14.0291 239.51C14.0291 238.957 14.1383 238.41 14.3503 237.9C14.5624 237.389 14.8733 236.925 15.2652 236.535C15.657 236.144 16.1222 235.835 16.634 235.623C17.1459 235.412 17.6944 235.304 18.2482 235.305H143.618C144.172 235.304 144.72 235.412 145.232 235.623C145.744 235.835 146.209 236.144 146.601 236.535C146.993 236.925 147.304 237.389 147.516 237.9C147.728 238.41 147.837 238.957 147.837 239.51C147.837 240.063 147.728 240.61 147.516 241.121C147.304 241.631 146.993 242.095 146.601 242.485C146.209 242.876 145.744 243.186 145.232 243.397C144.72 243.608 144.172 243.716 143.618 243.715Z" fill="#FFA9E7"/>
<path d="M143.831 121.238C148.195 121.238 151.733 117.708 151.733 113.353C151.733 108.998 148.195 105.468 143.831 105.468C139.468 105.468 135.93 108.998 135.93 113.353C135.93 117.708 139.468 121.238 143.831 121.238Z" fill="#FF47CC"/>
<path d="M325.878 156.982H139.931C138.813 156.982 137.741 156.539 136.951 155.751C136.16 154.962 135.716 153.892 135.716 152.777C135.716 151.662 136.16 150.592 136.951 149.804C137.741 149.015 138.813 148.572 139.931 148.572H325.878C326.996 148.572 328.068 149.015 328.858 149.804C329.648 150.592 330.092 151.662 330.092 152.777C330.092 153.892 329.648 154.962 328.858 155.751C328.068 156.539 326.996 156.982 325.878 156.982Z" fill="#FC1ABD"/>
<path d="M265.3 139.11H139.931C139.377 139.111 138.828 139.003 138.316 138.792C137.804 138.58 137.339 138.271 136.947 137.88C136.556 137.49 136.245 137.026 136.033 136.515C135.821 136.005 135.711 135.458 135.711 134.905C135.711 134.352 135.821 133.805 136.033 133.295C136.245 132.784 136.556 132.32 136.947 131.93C137.339 131.539 137.804 131.229 138.316 131.018C138.828 130.807 139.377 130.699 139.931 130.7H265.3C265.854 130.699 266.403 130.807 266.914 131.018C267.426 131.229 267.891 131.539 268.283 131.93C268.675 132.32 268.986 132.784 269.198 133.295C269.41 133.805 269.519 134.352 269.519 134.905C269.519 135.458 269.41 136.005 269.198 136.515C268.986 137.026 268.675 137.49 268.283 137.88C267.891 138.271 267.426 138.58 266.914 138.792C266.403 139.003 265.854 139.111 265.3 139.11Z" fill="#FC1ABD"/>
<path d="M325.797 216.341C325.978 215.477 326.346 214.663 326.876 213.956C327.406 213.25 328.084 212.668 328.864 212.251C329.644 211.835 330.506 211.594 331.389 211.546C332.272 211.497 333.155 211.643 333.975 211.972L348.089 195.789L351.087 206.528L337.225 220.25C336.579 221.589 335.464 222.645 334.09 223.218C332.716 223.792 331.18 223.842 329.771 223.36C328.362 222.879 327.18 221.898 326.447 220.604C325.715 219.311 325.484 217.794 325.797 216.341V216.341Z" fill="#FFB8B8"/>
<path d="M403.257 140.399C411.418 140.399 418.034 133.797 418.034 125.653C418.034 117.51 411.418 110.908 403.257 110.908C395.097 110.908 388.481 117.51 388.481 125.653C388.481 133.797 395.097 140.399 403.257 140.399Z" fill="#FFB8B8"/>
<path d="M385.898 328.615L378.523 328.614L375.014 300.225L385.9 300.226L385.898 328.615Z" fill="#FFB8B8"/>
<path d="M387.78 335.75L363.997 335.749V335.448C363.997 334.235 364.237 333.034 364.702 331.913C365.167 330.793 365.849 329.774 366.709 328.917C367.568 328.059 368.589 327.378 369.712 326.914C370.835 326.45 372.038 326.211 373.254 326.211H373.255L387.78 326.212L387.78 335.75Z" fill="#2F2E41"/>
<path d="M408.158 336.419L400.783 336.419L399.761 308.708L408.16 308.03L408.158 336.419Z" fill="#FFB8B8"/>
<path d="M410.039 343.554L386.257 343.553V343.253C386.257 342.04 386.497 340.839 386.962 339.718C387.427 338.597 388.109 337.579 388.968 336.721C389.828 335.863 390.848 335.183 391.971 334.719C393.095 334.255 394.298 334.016 395.514 334.016H395.514L410.04 334.016L410.039 343.554Z" fill="#2F2E41"/>
<path d="M406.06 331.239L400.317 330.564C399.665 330.486 399.064 330.175 398.625 329.689C398.185 329.203 397.937 328.574 397.926 327.92L396.85 253.273C396.847 253.062 396.769 252.858 396.631 252.698C396.493 252.538 396.303 252.432 396.094 252.398C395.885 252.363 395.671 252.404 395.488 252.511C395.306 252.619 395.168 252.787 395.097 252.986L387.128 275.438L387.698 317.524C387.708 318.218 387.449 318.89 386.975 319.399C386.501 319.908 385.849 320.215 385.154 320.257L377.656 320.575C376.97 320.614 376.294 320.392 375.765 319.956C375.236 319.519 374.891 318.898 374.801 318.219L370.885 270.61L370.882 270.58L376.825 220.86L421.454 224.082L409.065 328.872C408.987 329.529 408.67 330.134 408.175 330.573C407.68 331.013 407.041 331.256 406.378 331.257C406.272 331.258 406.166 331.251 406.06 331.239Z" fill="#2F2E41"/>
<path d="M377.015 225.268C376.615 225.054 376.275 224.743 376.027 224.363C375.779 223.984 375.632 223.547 375.599 223.095C375.599 223.095 379.612 198.19 381.083 197.723L377.865 171.09C377.479 167.841 377.748 164.549 378.655 161.405C379.562 158.262 381.089 155.331 383.147 152.785C385.129 150.315 387.591 148.271 390.387 146.776C393.182 145.282 396.251 144.368 399.41 144.09C399.86 144.05 400.307 144.019 400.752 143.998C404.56 143.794 408.36 144.511 411.831 146.088C415.301 147.664 418.339 150.053 420.686 153.052C423.12 156.077 424.786 159.644 425.542 163.449C426.299 167.254 426.123 171.186 425.029 174.909L423.224 181.176V224.975C423.222 225.403 423.12 225.824 422.926 226.205C422.731 226.585 422.45 226.916 422.104 227.168C416.485 231.284 410.134 232.739 403.962 232.739C392.284 232.739 381.247 227.528 377.015 225.268Z" fill="#FC1ABD"/>
<path d="M342.368 217.253L334.606 211.46C334.302 211.233 334.049 210.945 333.863 210.613C333.678 210.282 333.565 209.915 333.531 209.537C333.497 209.16 333.543 208.779 333.667 208.42C333.79 208.061 333.988 207.732 334.247 207.455L380.489 157.941C381.973 156.366 383.975 155.374 386.13 155.145C388.285 154.916 390.45 155.466 392.233 156.695C393.32 157.451 394.226 158.437 394.887 159.582C395.549 160.727 395.949 162.004 396.06 163.321C396.17 164.638 395.988 165.963 395.527 167.202C395.066 168.441 394.337 169.563 393.392 170.489L345.886 217.017C345.469 217.43 344.927 217.695 344.345 217.772C343.762 217.849 343.17 217.733 342.66 217.443C342.559 217.385 342.462 217.322 342.368 217.253Z" fill="#FC1ABD"/>
<path d="M401.777 210.697C402.117 209.882 402.631 209.151 403.284 208.556C403.937 207.96 404.713 207.515 405.557 207.252C406.401 206.988 407.292 206.912 408.169 207.029C409.046 207.147 409.886 207.455 410.63 207.931L427.527 194.667L428.46 205.777L412.271 216.669C411.386 217.864 410.092 218.694 408.635 219C407.178 219.307 405.659 219.07 404.366 218.334C403.072 217.598 402.094 216.414 401.617 215.006C401.14 213.599 401.197 212.065 401.777 210.697V210.697Z" fill="#FFB8B8"/>
<path d="M416.901 215.875C416.454 215.736 416.051 215.483 415.732 215.141C415.413 214.799 415.189 214.379 415.083 213.924L413.376 206.771C413.251 206.263 413.278 205.729 413.455 205.237C413.631 204.745 413.949 204.315 414.369 204.002L425.853 191.608L408.96 165.615C407.682 164.044 406.961 162.094 406.911 160.071C406.861 158.048 407.484 156.065 408.682 154.433C409.638 153.132 410.921 152.107 412.402 151.46C413.883 150.814 415.509 150.57 417.115 150.752C418.721 150.935 420.25 151.537 421.547 152.499C422.844 153.462 423.863 154.749 424.502 156.23L440.206 186.734C441.768 189.765 442.157 193.263 441.3 196.562C440.444 199.86 438.401 202.729 435.561 204.622L419.512 215.32C419.021 215.759 418.385 216.002 417.725 216.003C417.446 216.002 417.168 215.959 416.901 215.875V215.875Z" fill="#FC1ABD"/>
<path d="M414.206 138.835C413.858 139.044 413.467 139.17 413.062 139.203C412.657 139.236 412.25 139.176 411.873 139.027C411.495 138.878 411.157 138.645 410.884 138.344C410.611 138.044 410.411 137.685 410.3 137.296L410.291 137.259C409.99 136.032 410.227 134.748 410.305 133.487C410.383 132.226 410.252 130.843 409.387 129.921C407.774 128.202 404.926 129.133 402.606 128.708C401.246 128.413 400.041 127.634 399.215 126.516C398.39 125.398 398.001 124.018 398.122 122.635C398.154 122.373 398.204 122.11 398.261 121.848C398.402 121.183 398.387 120.494 398.217 119.836C398.047 119.178 397.726 118.568 397.28 118.055C396.834 117.541 396.275 117.138 395.647 116.876C395.018 116.614 394.337 116.502 393.658 116.547C391.315 116.693 388.79 117.415 386.842 115.693C386.128 115.014 385.63 114.14 385.41 113.18C385.19 112.22 385.259 111.217 385.607 110.295C386.697 107.101 389.816 105.415 392.907 104.481C396.731 103.357 400.757 103.096 404.693 103.719C408.63 104.342 412.377 105.833 415.664 108.083C417.627 109.448 419.463 111.166 420.308 113.4C421.154 115.633 420.767 118.458 418.895 119.946C420.36 121.477 421.396 123.366 421.899 125.423C422.403 127.479 422.355 129.632 421.762 131.665C420.85 134.655 416.435 137.54 414.206 138.835Z" fill="#2F2E41"/>
</svg>
