<svg width="216" height="189" viewBox="0 0 216 189" fill="none" xmlns="http://www.w3.org/2000/svg">
<path d="M72.8362 85.0213C79.3994 85.0213 84.72 79.7059 84.72 73.149C84.72 66.592 79.3994 61.2766 72.8362 61.2766C66.2729 61.2766 60.9524 66.592 60.9524 73.149C60.9524 79.7059 66.2729 85.0213 72.8362 85.0213Z" fill="#F2F2F2"/>
<path d="M36.1952 32.2229H118.071V36.6981H46.6474C42.448 36.6981 38.2896 37.5245 34.4098 39.13C30.53 40.7355 27.0048 43.0887 24.0353 46.0553C21.0658 49.0219 18.7103 52.5438 17.1032 56.4198C15.4962 60.2959 14.669 64.4502 14.669 68.6456V119.489H5.71C5.31399 119.489 4.9342 119.332 4.65418 119.052C4.37416 118.773 4.21684 118.393 4.21683 117.998V64.1704C4.21682 59.975 5.04397 55.8206 6.65103 51.9446C8.2581 48.0685 10.6136 44.5467 13.5831 41.5801C16.5525 38.6135 20.0778 36.2602 23.9576 34.6547C27.8374 33.0492 31.9957 32.2229 36.1952 32.2229Z" fill="#F2F2F2"/>
<path d="M51.9437 187.277V119.298H71.8778V187.277C71.8773 187.734 71.6954 188.172 71.372 188.495C71.0486 188.818 70.6101 188.999 70.1527 189H53.6688C53.2114 188.999 52.7729 188.818 52.4495 188.495C52.1261 188.172 51.9442 187.734 51.9437 187.277Z" fill="#3F3D56"/>
<path d="M0 117.958V62.6806C0.00994536 53.8808 3.51341 45.4443 9.74177 39.2219C15.9701 32.9996 24.4147 29.4995 33.223 29.4895H117.688V119.872H1.91674C1.40857 119.872 0.921381 119.67 0.562048 119.311C0.202716 118.952 0.000581367 118.465 0 117.958ZM116.921 30.2555H33.223C24.618 30.2652 16.3683 33.6845 10.2837 39.7633C4.19904 45.8421 0.776425 54.0839 0.766697 62.6806V117.958C0.767029 118.262 0.888301 118.554 1.1039 118.77C1.31951 118.985 1.61183 119.106 1.91674 119.107H116.921V30.2555Z" fill="#3F3D56"/>
<path d="M72.8362 79.2766C71.0067 79.2745 69.2528 78.5476 67.9592 77.2552C66.6656 75.9629 65.938 74.2106 65.9359 72.383V22.9787C65.9356 22.6741 65.8143 22.3821 65.5987 22.1667C65.3831 21.9513 65.0908 21.8301 64.7858 21.8298H37.9515C37.4433 21.8292 36.9561 21.6273 36.5968 21.2683C36.2375 20.9093 36.0353 20.4226 36.0347 19.9149V1.91489C36.0353 1.40721 36.2375 0.920491 36.5968 0.561507C36.9561 0.202522 37.4433 0.000587888 37.9515 0H77.8197C78.3279 0.000580807 78.815 0.202514 79.1744 0.561501C79.5337 0.920487 79.7359 1.40721 79.7364 1.91489V72.383C79.7344 74.2106 79.0067 75.9629 77.7131 77.2552C76.4195 78.5476 74.6656 79.2745 72.8362 79.2766Z" fill="#FC1ABD"/>
<path d="M120.755 28.7234C126.538 28.7113 132.089 30.9948 136.187 35.0716C140.284 39.1483 142.593 44.6844 142.606 50.4619V113.389H185.541C187.265 113.385 188.921 114.066 190.143 115.282C191.365 116.498 192.054 118.149 192.057 119.872H98.9039V50.4619C98.916 44.6844 101.225 39.1483 105.323 35.0716C109.421 30.9948 114.972 28.7113 120.755 28.7234Z" fill="#3F3D56"/>
<path d="M115.511 64.5577L120.036 83.2303L208.544 61.825L204.019 43.1524C203.965 42.9241 203.853 42.7133 203.695 42.5396C203.537 42.3658 203.338 42.2348 203.115 42.1586C202.951 42.1009 202.778 42.0748 202.604 42.0817L151.443 15.6171C151.143 15.4642 150.798 15.4233 150.471 15.5019C150.144 15.5805 149.855 15.7734 149.658 16.0458L125.001 50.3966L115.705 63.35C115.688 63.3727 115.677 63.3987 115.671 63.4264C115.665 63.454 115.665 63.4826 115.671 63.5102C115.482 63.8247 115.425 64.2011 115.511 64.5577Z" fill="white"/>
<path d="M115.671 63.5102C115.676 63.5345 115.685 63.5577 115.698 63.5784C115.711 63.5992 115.729 63.6171 115.749 63.6312C115.773 63.6476 115.8 63.659 115.829 63.6646C115.857 63.6702 115.887 63.67 115.915 63.6639C115.961 63.6516 116.002 63.6235 116.03 63.5845L116.062 63.5403L116.546 62.8642L125.335 50.6225L149.985 16.2796C150.126 16.085 150.332 15.9472 150.565 15.8913C150.799 15.8353 151.045 15.8649 151.258 15.9747L202.024 42.2342L202.479 42.4705C202.498 42.4782 202.516 42.4848 202.536 42.4902C202.57 42.484 202.605 42.4807 202.64 42.4803C202.687 42.4643 202.727 42.4308 202.751 42.3865C202.763 42.3632 202.771 42.3377 202.773 42.3114C202.776 42.2852 202.773 42.2587 202.765 42.2335C202.757 42.2083 202.745 42.1848 202.728 42.1645C202.711 42.1442 202.69 42.1274 202.667 42.1151L202.604 42.0817L151.443 15.6171C151.143 15.4642 150.798 15.4233 150.471 15.5019C150.144 15.5805 149.855 15.7734 149.658 16.0458L125.001 50.3966L115.705 63.35C115.688 63.3727 115.677 63.3987 115.671 63.4264C115.665 63.454 115.665 63.4826 115.671 63.5102Z" fill="#3F3D56"/>
<path d="M142.253 65.4142L144.223 65.6325L158.845 67.2507L168.538 68.3228L169.111 68.3864L181.206 58.948L181.67 58.5864L184.526 56.3574L194.69 48.4274L194.751 47.8704L198.367 15.2735C198.416 14.8246 198.285 14.3745 198.003 14.0219C197.72 13.6693 197.309 13.443 196.86 13.3925L148.614 8.05306C148.164 8.00405 147.714 8.13488 147.361 8.41692C147.008 8.69897 146.782 9.10923 146.731 9.55786L144.181 32.551L142.767 45.2987L141.502 56.7032L140.916 61.9995L140.745 63.5336C140.696 63.9827 140.827 64.4327 141.11 64.7852C141.393 65.1377 141.804 65.3639 142.253 65.4142Z" fill="#E6E6E6"/>
<path d="M155.511 36.8417L176.41 39.1542L183.821 39.974C184.149 40.0102 184.48 39.9817 184.796 39.89C185.112 39.7984 185.407 39.6454 185.664 39.4399C185.921 39.2343 186.135 38.9802 186.294 38.692C186.453 38.4039 186.553 38.0873 186.589 37.7604C186.625 37.4335 186.597 37.1027 186.505 36.7868C186.413 36.4709 186.26 36.1762 186.054 35.9194C185.849 35.6626 185.594 35.4489 185.306 35.2903C185.017 35.1318 184.701 35.0315 184.373 34.9953L175.155 33.9754L156.065 31.8606C155.404 31.7877 154.741 31.9799 154.221 32.3951C153.702 32.8104 153.369 33.4145 153.296 34.0749C153.223 34.7352 153.415 35.3976 153.83 35.9164C154.246 36.4353 154.85 36.7681 155.511 36.8417Z" fill="white"/>
<path d="M154.321 46.0775C154.375 46.0871 154.429 46.0968 154.484 46.102L178.744 48.7871L182.795 49.2363C183.456 49.3093 184.119 49.117 184.638 48.7016C185.157 48.2863 185.49 47.6819 185.563 47.0214C185.636 46.3609 185.444 45.6985 185.028 45.1798C184.612 44.6611 184.007 44.3287 183.346 44.2556L177.489 43.6083L158.272 41.4809L155.038 41.1229C154.391 41.0508 153.742 41.2328 153.227 41.6304C152.712 42.0281 152.372 42.6101 152.279 43.2536C152.186 43.897 152.347 44.5514 152.728 45.0784C153.109 45.6054 153.68 45.9637 154.321 46.0775V46.0775Z" fill="white"/>
<path d="M151.575 54.2671C151.774 54.5969 152.046 54.8764 152.371 55.084C152.695 55.2916 153.063 55.4217 153.446 55.4641L163.39 56.5643L181.099 58.5244L181.103 58.5235L181.67 58.5865L184.526 56.3575C184.544 56.1882 184.544 56.0175 184.527 55.8481C184.467 55.2795 184.214 54.7485 183.811 54.343C183.407 53.9374 182.877 53.6815 182.309 53.6177L179.848 53.3446L170.09 52.2657L163.068 51.4877L153.998 50.4835C153.533 50.4321 153.063 50.5116 152.641 50.713C152.219 50.9145 151.862 51.2298 151.61 51.6234C151.358 52.017 151.221 52.4732 151.215 52.9403C151.209 53.4075 151.334 53.8671 151.575 54.2671L151.575 54.2671Z" fill="white"/>
<path d="M165.542 25.5521L170.742 26.1275L173.039 26.3823L176.508 26.7659C177.169 26.8389 177.832 26.6466 178.351 26.2313C178.87 25.8159 179.203 25.2115 179.276 24.551C179.349 23.8906 179.157 23.2281 178.741 22.7094C178.325 22.1907 177.72 21.8583 177.059 21.7853L166.096 20.573C165.435 20.4996 164.772 20.6915 164.253 21.1065C163.733 21.5215 163.4 22.1255 163.327 22.7858C163.253 23.4461 163.446 24.1085 163.861 24.6273C164.276 25.1461 164.881 25.4787 165.542 25.5521V25.5521Z" fill="white"/>
<path d="M123.023 39.4206L129.362 65.5834L139.943 67.5933L149.731 69.4549L160.232 71.4512L163.588 72.0891C163.784 72.1262 163.986 72.1211 164.18 72.0741C164.375 72.0271 164.557 71.9393 164.715 71.8166L167.406 69.7161L169.111 68.3864L181.206 58.948L173.516 27.2092C173.44 26.8934 173.274 26.6063 173.039 26.3823C172.832 26.1841 172.579 26.041 172.303 25.9662C172.026 25.8915 171.736 25.8874 171.457 25.9544L124.279 37.3644C123.839 37.4709 123.46 37.7473 123.225 38.1329C122.989 38.5184 122.917 38.9816 123.023 39.4206Z" fill="#FC1ABD"/>
<path d="M137.56 60.2341C137.716 60.8794 138.123 61.4362 138.691 61.7822C139.258 62.1281 139.94 62.235 140.586 62.0793L168.27 55.3842C168.915 55.227 169.472 54.8204 169.819 54.2536C170.165 53.6867 170.272 53.0059 170.117 52.3602C170.109 52.3282 170.1 52.2967 170.09 52.2658C169.913 51.6433 169.502 51.1134 168.942 50.787C168.383 50.4606 167.719 50.3632 167.09 50.515L139.406 57.2101C138.76 57.367 138.203 57.7735 137.857 58.3404C137.511 58.9074 137.404 59.5884 137.56 60.2341Z" fill="white"/>
<path d="M139.943 67.5933L149.731 69.4549L170.464 64.4407C171.11 64.2844 171.668 63.878 172.014 63.3109C172.361 62.7438 172.468 62.0624 172.311 61.4167C172.155 60.7711 171.748 60.2139 171.18 59.8679C170.613 59.5218 169.931 59.4152 169.284 59.5715L141.601 66.2666C141.022 66.4054 140.513 66.7467 140.164 67.2285C140.081 67.3436 140.007 67.4657 139.943 67.5933Z" fill="white"/>
<path d="M160.232 71.4511L163.588 72.089C163.784 72.1261 163.986 72.121 164.18 72.074C164.375 72.027 164.557 71.9392 164.715 71.8165L167.406 69.7161L160.232 71.4511Z" fill="white"/>
<path d="M143.138 46.2052C143.294 46.8506 143.701 47.4074 144.269 47.7534C144.836 48.0993 145.518 48.2061 146.164 48.0504L156.887 45.4573C157.533 45.3001 158.09 44.8935 158.436 44.3267C158.782 43.7598 158.889 43.079 158.734 42.4333C158.65 42.0864 158.493 41.7616 158.272 41.4812C157.975 41.1021 157.576 40.8163 157.121 40.6579C156.666 40.4996 156.175 40.4754 155.707 40.5881L144.985 43.1813C144.338 43.3377 143.781 43.7441 143.434 44.3112C143.088 44.8783 142.981 45.5595 143.138 46.2052V46.2052Z" fill="white"/>
<path d="M149.73 69.4548L160.233 71.4515L163.588 72.0897C163.784 72.1263 163.986 72.121 164.18 72.074C164.374 72.0271 164.556 71.9396 164.714 71.8173L167.408 69.7163L166.462 69.9449L164.467 71.5002C164.354 71.5876 164.224 71.6501 164.085 71.6836C163.947 71.7171 163.802 71.721 163.662 71.6948L161.178 71.2228L150.675 69.2261L149.73 69.4548ZM181.102 58.5249L181.205 58.9469L181.671 58.5851L181.102 58.5249ZM149.73 69.4548L160.233 71.4515L163.588 72.0897C163.784 72.1263 163.986 72.121 164.18 72.074C164.374 72.0271 164.556 71.9396 164.714 71.8173L167.408 69.7163L166.462 69.9449L164.467 71.5002C164.354 71.5876 164.224 71.6501 164.085 71.6836C163.947 71.7171 163.802 71.721 163.662 71.6948L161.178 71.2228L150.675 69.2261L149.73 69.4548ZM149.73 69.4548L160.233 71.4515L163.588 72.0897C163.784 72.1263 163.986 72.121 164.18 72.074C164.374 72.0271 164.556 71.9396 164.714 71.8173L167.408 69.7163L166.462 69.9449L164.467 71.5002C164.354 71.5876 164.224 71.6501 164.085 71.6836C163.947 71.7171 163.802 71.721 163.662 71.6948L161.178 71.2228L150.675 69.2261L149.73 69.4548ZM115.511 64.5577L127.363 113.468C127.451 113.829 127.679 114.141 127.997 114.335C128.314 114.529 128.696 114.589 129.058 114.501L214.836 93.7562C215.198 93.6684 215.51 93.4407 215.704 93.1232C215.898 92.8057 215.958 92.4242 215.871 92.0627L204.019 43.1524C203.965 42.9241 203.853 42.7133 203.695 42.5395C203.537 42.3658 203.338 42.2347 203.115 42.1585C202.951 42.1009 202.778 42.0748 202.604 42.0816C202.401 42.0875 202.203 42.1397 202.024 42.2342C201.941 42.2734 201.863 42.3219 201.791 42.3786L194.751 47.8704L184.527 55.8492L181.102 58.522L181.102 58.5249L181.1 58.5256L168.539 68.3214L166.462 69.9449L164.467 71.5002C164.354 71.5875 164.224 71.65 164.085 71.6836C163.947 71.7171 163.802 71.721 163.662 71.6948L161.178 71.2228L150.675 69.2261L140.163 67.2286L117.139 62.8513C116.943 62.8124 116.74 62.8168 116.546 62.8641C116.284 62.928 116.046 63.0657 115.86 63.2608C115.789 63.3375 115.726 63.421 115.671 63.5101C115.482 63.8247 115.425 64.2011 115.511 64.5577ZM149.73 69.4548L160.233 71.4515L163.588 72.0897C163.784 72.1263 163.986 72.121 164.18 72.074C164.374 72.0271 164.556 71.9396 164.714 71.8173L167.408 69.7163L166.462 69.9449L164.467 71.5002C164.354 71.5876 164.224 71.6501 164.085 71.6836C163.947 71.7171 163.802 71.721 163.662 71.6948L161.178 71.2228L150.675 69.2261L149.73 69.4548ZM149.73 69.4548L160.233 71.4515L163.588 72.0897C163.784 72.1263 163.986 72.121 164.18 72.074C164.374 72.0271 164.556 71.9396 164.714 71.8173L167.408 69.7163L166.462 69.9449L164.467 71.5002C164.354 71.5876 164.224 71.6501 164.085 71.6836C163.947 71.7171 163.802 71.721 163.662 71.6948L161.178 71.2228L150.675 69.2261L149.73 69.4548ZM149.73 69.4548L160.233 71.4515L163.588 72.0897C163.784 72.1263 163.986 72.121 164.18 72.074C164.374 72.0271 164.556 71.9396 164.714 71.8173L167.408 69.7163L166.462 69.9449L164.467 71.5002C164.354 71.5876 164.224 71.6501 164.085 71.6836C163.947 71.7171 163.802 71.721 163.662 71.6948L161.178 71.2228L150.675 69.2261L149.73 69.4548Z" fill="white"/>
<path d="M149.73 69.455L160.233 71.4517L163.588 72.0899C163.784 72.1265 163.986 72.1212 164.18 72.0742C164.374 72.0273 164.556 71.9398 164.714 71.8175L167.408 69.7165L166.462 69.9452L164.467 71.5004C164.354 71.5878 164.224 71.6503 164.085 71.6838C163.947 71.7174 163.802 71.7212 163.662 71.695L161.178 71.223L150.675 69.2264L149.73 69.455ZM181.102 58.5252L181.205 58.9471L181.671 58.5853L181.102 58.5252ZM149.73 69.455L160.233 71.4517L163.588 72.0899C163.784 72.1265 163.986 72.1212 164.18 72.0742C164.374 72.0273 164.556 71.9398 164.714 71.8175L167.408 69.7165L166.462 69.9452L164.467 71.5004C164.354 71.5878 164.224 71.6503 164.085 71.6838C163.947 71.7174 163.802 71.7212 163.662 71.695L161.178 71.223L150.675 69.2264L149.73 69.455ZM149.73 69.455L160.233 71.4517L163.588 72.0899C163.784 72.1265 163.986 72.1212 164.18 72.0742C164.374 72.0273 164.556 71.9398 164.714 71.8175L167.408 69.7165L166.462 69.9452L164.467 71.5004C164.354 71.5878 164.224 71.6503 164.085 71.6838C163.947 71.7174 163.802 71.7212 163.662 71.695L161.178 71.223L150.675 69.2264L149.73 69.455ZM116.062 63.5405L116.114 63.5796C116.122 63.5653 116.138 63.5525 116.149 63.5376C116.265 63.4168 116.41 63.3267 116.569 63.2754C116.729 63.2241 116.899 63.2131 117.064 63.2435L139.944 67.5919L149.73 69.455L160.233 71.4517L163.588 72.0899C163.784 72.1265 163.986 72.1212 164.18 72.0742C164.374 72.0273 164.556 71.9398 164.714 71.8175L167.408 69.7165L166.462 69.9451L164.467 71.5004C164.354 71.5878 164.224 71.6503 164.085 71.6838C163.947 71.7174 163.802 71.7212 163.662 71.695L161.178 71.223L150.675 69.2264L140.163 67.2289L117.139 62.8515C116.943 62.8127 116.74 62.817 116.546 62.8643L116.062 63.5405ZM115.511 64.5579L127.363 113.468C127.451 113.83 127.679 114.141 127.997 114.335C128.314 114.529 128.696 114.589 129.058 114.502L214.836 93.7565C215.198 93.6686 215.51 93.441 215.704 93.1234C215.898 92.8059 215.958 92.4245 215.871 92.0629L204.019 43.1526C203.965 42.9243 203.853 42.7135 203.695 42.5398C203.537 42.366 203.338 42.235 203.115 42.1588C202.951 42.1011 202.778 42.075 202.604 42.0819C202.401 42.0877 202.203 42.1399 202.024 42.2344C201.941 42.2737 201.863 42.3221 201.791 42.3788L194.751 47.8707L184.527 55.8494L181.102 58.5223L181.102 58.5252L181.1 58.5259L168.539 68.3217L166.462 69.9452L164.467 71.5004C164.354 71.5878 164.224 71.6503 164.085 71.6838C163.947 71.7174 163.802 71.7212 163.662 71.695L161.178 71.2231L150.675 69.2264L140.163 67.2289L117.139 62.8515C116.943 62.8127 116.74 62.817 116.546 62.8643C116.284 62.9283 116.046 63.066 115.86 63.2611C115.789 63.3377 115.726 63.4212 115.671 63.5104C115.482 63.8249 115.425 64.2013 115.511 64.5579ZM115.902 64.4634C115.867 64.3192 115.865 64.1691 115.895 64.0239C115.926 63.8787 115.989 63.7423 116.079 63.6245C116.087 63.6071 116.099 63.5918 116.114 63.5796C116.122 63.5653 116.138 63.5525 116.149 63.5376C116.265 63.4168 116.41 63.3267 116.569 63.2754C116.729 63.2241 116.899 63.2132 117.064 63.2435L139.944 67.5919L149.73 69.455L160.233 71.4517L163.588 72.0899C163.784 72.1265 163.986 72.1212 164.18 72.0742C164.374 72.0273 164.556 71.9398 164.714 71.8175L167.408 69.7165L169.111 68.3868L181.205 58.9471L181.671 58.5853L184.525 56.3573L194.691 48.4261L202.04 42.6923C202.152 42.6052 202.281 42.5429 202.419 42.5096C202.457 42.5002 202.496 42.4938 202.536 42.4904C202.57 42.4842 202.605 42.4808 202.64 42.4805C202.757 42.4793 202.874 42.4984 202.985 42.5367C203.143 42.5918 203.285 42.6856 203.398 42.8096C203.511 42.9335 203.591 43.0837 203.631 43.2464L215.483 92.1567C215.514 92.2849 215.52 92.4179 215.499 92.5483C215.479 92.6786 215.433 92.8036 215.364 92.9162C215.296 93.0288 215.205 93.1268 215.099 93.2044C214.992 93.2821 214.871 93.338 214.742 93.3689L128.964 114.114C128.705 114.176 128.432 114.133 128.205 113.994C127.978 113.855 127.816 113.632 127.754 113.374L115.902 64.4634ZM149.73 69.455L160.233 71.4517L163.588 72.0899C163.784 72.1265 163.986 72.1212 164.18 72.0743C164.374 72.0273 164.556 71.9398 164.714 71.8175L167.408 69.7165L166.462 69.9452L164.467 71.5004C164.354 71.5878 164.224 71.6503 164.085 71.6838C163.947 71.7174 163.802 71.7212 163.662 71.695L161.178 71.2231L150.675 69.2264L149.73 69.455ZM149.73 69.455L160.233 71.4517L163.588 72.0899C163.784 72.1265 163.986 72.1212 164.18 72.0743C164.374 72.0273 164.556 71.9398 164.714 71.8175L167.408 69.7165L166.462 69.9452L164.467 71.5004C164.354 71.5878 164.224 71.6503 164.085 71.6838C163.947 71.7174 163.802 71.7212 163.662 71.695L161.178 71.2231L150.675 69.2264L149.73 69.455ZM149.73 69.455L160.233 71.4517L163.588 72.0899C163.784 72.1265 163.986 72.1212 164.18 72.0743C164.374 72.0273 164.556 71.9398 164.714 71.8175L167.408 69.7165L166.462 69.9452L164.467 71.5004C164.354 71.5878 164.224 71.6503 164.085 71.6838C163.947 71.7174 163.802 71.7212 163.662 71.695L161.178 71.2231L150.675 69.2264L149.73 69.455Z" fill="#3F3D56"/>
<path d="M192.48 84.1472C192.287 83.3457 192.42 82.5004 192.849 81.7967C193.279 81.093 193.971 80.5884 194.773 80.3935L205.599 77.7752C206.4 77.5844 207.244 77.7186 207.947 78.1484C208.649 78.5782 209.152 79.2686 209.346 80.0682C209.54 80.8679 209.408 81.7117 208.98 82.4148C208.553 83.1179 207.863 83.623 207.064 83.8194L196.237 86.4377C195.435 86.6307 194.589 86.498 193.885 86.0686C193.18 85.6392 192.675 84.9482 192.48 84.1472Z" fill="#FC1ABD"/>
<path d="M72.8362 75.0639C74.3182 75.0639 75.5196 73.8636 75.5196 72.383C75.5196 70.9024 74.3182 69.7021 72.8362 69.7021C71.3542 69.7021 70.1527 70.9024 70.1527 72.383C70.1527 73.8636 71.3542 75.0639 72.8362 75.0639Z" fill="white"/>
</svg>
