<svg width="407" height="418" viewBox="0 0 407 418" fill="none" xmlns="http://www.w3.org/2000/svg">
<circle cx="203.5" cy="203.5" r="203.5" fill="#FC1ABD" fill-opacity="0.07"/>
<g clip-path="url(#clip0)">
<path d="M19.3143 271.033C19.3143 271.033 18.9892 270.075 18.4631 268.291" stroke="#FC1ABD" stroke-width="9" stroke-miterlimit="10"/>
<path d="M16.9233 262.73C5.29815 217.861 -30.945 11.0681 332.376 140.164" stroke="#FC1ABD" stroke-width="9" stroke-miterlimit="10" stroke-dasharray="12.04 12.04"/>
<path d="M335.097 141.123L337.799 142.081" stroke="#FC1ABD" stroke-width="9" stroke-miterlimit="10"/>
<path d="M293.297 300.606C293.3 290.91 289.693 281.563 283.183 274.393C276.673 267.222 267.728 262.745 258.098 261.837C248.469 260.93 238.848 263.657 231.118 269.485C223.389 275.313 218.107 283.822 216.306 293.348L96.951 290.103L98.2613 310.658C98.2613 310.658 81.2419 350.025 170.69 360.513V400.302H274.097V334.148C279.937 330.72 284.781 325.821 288.149 319.938C291.517 314.054 293.292 307.39 293.297 300.606Z" fill="url(#paint0_linear)"/>
<path d="M102.359 311.521C102.359 311.521 86.0623 349.219 171.723 359.277V397.397H270.755V296.44L101.087 291.833L102.359 311.521Z" fill="#F6B9AD"/>
<path d="M151.854 154.205C149.272 158.289 145.182 161.184 140.478 162.255C135.773 163.327 130.838 162.489 126.748 159.924L73.5763 124.8C69.5016 122.211 66.6144 118.111 65.5455 113.396C64.4765 108.68 65.3127 103.732 67.8713 99.6327C70.4534 95.5533 74.5397 92.6628 79.2391 91.5915C83.9386 90.5201 88.87 91.3549 92.958 93.9138L146.13 129.038C150.207 131.623 153.099 135.721 154.171 140.437C155.244 145.153 154.411 150.103 151.854 154.205Z" fill="url(#paint1_linear)"/>
<path d="M148.908 152.283C146.508 156.079 142.706 158.77 138.334 159.766C133.961 160.762 129.373 159.983 125.572 157.599L76.1299 124.949C72.3424 122.543 69.6587 118.732 68.665 114.348C67.6713 109.965 68.4485 105.366 70.8266 101.555C73.2269 97.7584 77.0285 95.0681 81.401 94.072C85.7735 93.0759 90.3616 93.8549 94.163 96.2389L143.595 128.894C147.383 131.298 150.068 135.108 151.063 139.49C152.059 143.872 151.284 148.471 148.908 152.283Z" fill="#F6B9AD"/>
<path d="M251.952 339.172C272.491 339.172 289.142 322.48 289.142 301.891C289.142 281.301 272.491 264.61 251.952 264.61C231.412 264.61 214.762 281.301 214.762 301.891C214.762 322.48 231.412 339.172 251.952 339.172Z" fill="#F6B9AD"/>
<path d="M245.257 56H102.79C99.5546 56 96.9319 58.6291 96.9319 61.8723V329.105C96.9319 332.348 99.5546 334.977 102.79 334.977H245.257C248.492 334.977 251.115 332.348 251.115 329.105V61.8723C251.115 58.6291 248.492 56 245.257 56Z" fill="url(#paint2_linear)"/>
<path d="M242.507 59.7727H105.54C101.937 59.7727 99.0168 62.7002 99.0168 66.3114V324.675C99.0168 328.287 101.937 331.214 105.54 331.214H242.507C246.109 331.214 249.03 328.287 249.03 324.675V66.3114C249.03 62.7002 246.109 59.7727 242.507 59.7727Z" fill="#808080"/>
<path d="M211.711 66.575C211.277 69.4536 209.829 72.0815 207.63 73.9833C205.432 75.8851 202.626 76.9353 199.722 76.9438H147.913C145.01 76.9342 142.206 75.8835 140.008 73.9818C137.81 72.08 136.363 69.4528 135.929 66.575H108.481C107.732 66.5743 106.991 66.7215 106.299 67.0082C105.608 67.2948 104.98 67.7153 104.45 68.2455C103.921 68.7757 103.501 69.4053 103.214 70.0983C102.928 70.7913 102.78 71.5341 102.78 72.2843V318.683C102.78 319.433 102.927 320.176 103.212 320.869C103.498 321.563 103.918 322.193 104.447 322.723C104.976 323.254 105.604 323.675 106.295 323.962C106.986 324.249 107.727 324.397 108.476 324.397H239.571C240.319 324.398 241.06 324.251 241.752 323.964C242.443 323.677 243.072 323.257 243.601 322.727C244.131 322.196 244.551 321.567 244.837 320.874C245.124 320.181 245.271 319.438 245.271 318.688V72.2891C245.272 71.5389 245.125 70.796 244.839 70.1028C244.553 69.4095 244.134 68.7796 243.605 68.2489C243.076 67.7182 242.448 67.2972 241.756 67.01C241.065 66.7228 240.324 66.575 239.576 66.575H211.711Z" fill="white"/>
<path d="M189.995 69.8252H158.477C157.949 69.8252 157.52 70.2544 157.52 70.7839V70.9613C157.52 71.4908 157.949 71.9201 158.477 71.9201H189.995C190.524 71.9201 190.952 71.4908 190.952 70.9613V70.7839C190.952 70.2544 190.524 69.8252 189.995 69.8252Z" fill="#DBDBDB"/>
<path d="M198.053 71.9201C198.745 71.9201 199.306 71.3578 199.306 70.6642C199.306 69.9705 198.745 69.4082 198.053 69.4082C197.361 69.4082 196.8 69.9705 196.8 70.6642C196.8 71.3578 197.361 71.9201 198.053 71.9201Z" fill="#DBDBDB"/>
<path d="M275.996 308.463C265.203 310.965 257.795 303.909 255.299 293.094L230.499 200.786C229.314 195.57 230.235 190.097 233.062 185.56C235.889 181.024 240.392 177.792 245.587 176.572C250.789 175.384 256.25 176.308 260.775 179.141C265.301 181.975 268.524 186.489 269.741 191.697L289.979 286.373C292.475 297.207 286.784 305.96 275.996 308.463Z" fill="url(#paint3_linear)"/>
<path d="M266.958 193.961C264.854 184.832 255.766 179.141 246.659 181.251C237.553 183.36 231.876 192.47 233.98 201.599L256.784 300.539C258.888 309.668 267.977 315.359 277.083 313.249C286.19 311.14 291.867 302.029 289.763 292.9L266.958 193.961Z" fill="#F6B9AD"/>
<path d="M288.989 384.923H147.44V418H288.989V384.923Z" fill="url(#paint4_linear)"/>
<path d="M285.163 388.758H151.266V414.645H285.163V388.758Z" fill="#FC1ABD"/>
<path d="M205.604 143.429L194.634 135.15L199.416 128.918L191.435 122.638L186.447 128.975L175.166 120.466C174.737 120.143 174.214 119.969 173.677 119.969C173.139 119.969 172.617 120.143 172.187 120.466L142.285 142.781C141.152 143.74 140.09 144.838 140.08 147.35H140.047L139.97 181.731V183.26C139.969 183.752 140.065 184.24 140.251 184.695C140.438 185.15 140.713 185.564 141.059 185.913C141.405 186.262 141.817 186.539 142.27 186.729C142.723 186.919 143.209 187.017 143.7 187.018H145.173L173.526 187.08L203.356 187.148C203.848 187.149 204.334 187.053 204.788 186.866C205.242 186.679 205.655 186.404 206.004 186.056C206.352 185.709 206.628 185.297 206.817 184.842C207.006 184.388 207.104 183.901 207.106 183.408L207.187 147.561H207.249C207.249 145.044 206.737 144.387 205.604 143.429Z" fill="url(#paint5_linear)"/>
<path d="M204.303 148.083C204.303 145.792 203.825 145.207 202.802 144.32L175.032 123.386C174.64 123.09 174.163 122.931 173.672 122.931C173.181 122.931 172.704 123.09 172.311 123.386L145.03 143.75C144.374 144.219 143.846 144.847 143.495 145.575C143.144 146.303 142.981 147.108 143.021 147.915H142.993L142.921 179.286V180.681C142.92 181.588 143.277 182.458 143.916 183.101C144.554 183.743 145.421 184.106 146.326 184.108H147.669L173.54 184.166L200.755 184.228C201.66 184.229 202.528 183.871 203.169 183.231C203.81 182.591 204.172 181.722 204.174 180.815L204.246 148.107L204.303 148.083Z" fill="url(#paint6_linear)"/>
<path d="M143.494 148.041L203.666 148.178L203.591 181.365C203.591 181.628 203.538 181.889 203.437 182.131C203.336 182.374 203.189 182.595 203.003 182.78C202.817 182.966 202.596 183.113 202.353 183.213C202.11 183.314 201.85 183.365 201.588 183.364L145.638 183.237C145.053 183.236 144.493 183.001 144.081 182.586C143.668 182.171 143.437 181.608 143.438 181.022L143.513 148.041L143.494 148.041Z" fill="#FC1ABD"/>
<path opacity="0.2" d="M143.494 148.041L203.666 148.178L203.591 181.365C203.591 181.628 203.538 181.889 203.437 182.131C203.336 182.374 203.189 182.595 203.003 182.78C202.817 182.966 202.596 183.113 202.353 183.213C202.11 183.314 201.85 183.365 201.588 183.364L145.638 183.237C145.053 183.236 144.493 183.001 144.081 182.586C143.668 182.171 143.437 181.608 143.438 181.022L143.513 148.041L143.494 148.041Z" fill="white"/>
<path d="M143.499 148.031L143.433 178.514C143.431 179.129 143.551 179.738 143.785 180.307C144.018 180.876 144.361 181.393 144.794 181.828C145.227 182.264 145.741 182.61 146.308 182.847C146.874 183.083 147.481 183.206 148.095 183.207L198.924 183.322" fill="#F5F5F5"/>
<path d="M203.677 148.165L203.61 178.667C203.609 179.282 203.487 179.891 203.251 180.459C203.015 181.026 202.669 181.542 202.235 181.976C201.8 182.41 201.284 182.754 200.717 182.988C200.15 183.222 199.542 183.342 198.928 183.341L148.1 183.226" fill="white"/>
<path d="M172.307 124.182L145.527 143.98C144.884 144.433 144.365 145.042 144.02 145.751C143.675 146.459 143.514 147.243 143.552 148.03L203.753 148.222C203.753 145.993 203.275 145.408 202.281 144.565L174.999 124.191C174.612 123.898 174.14 123.738 173.654 123.736C173.169 123.735 172.696 123.891 172.307 124.182Z" fill="#FC1ABD"/>
<path opacity="0.2" d="M172.307 124.182L145.527 143.98C144.884 144.433 144.365 145.042 144.02 145.751C143.675 146.459 143.514 147.243 143.552 148.03L203.753 148.222C203.753 145.993 203.275 145.408 202.281 144.565L174.999 124.191C174.612 123.898 174.14 123.738 173.654 123.736C173.169 123.735 172.696 123.891 172.307 124.182Z" fill="black"/>
<path d="M197.159 131.07L189.876 125.346L172.273 147.695L162.814 140.341L156.889 147.891L170.657 158.433L174.071 161.18L197.159 131.07Z" fill="url(#paint7_linear)"/>
<path d="M196.623 130.931L190.024 125.859L172.536 148.721L162.824 141.257L157.76 147.872L170.772 157.862L174.109 160.37L196.623 130.931Z" fill="white"/>
<path d="M140.434 204.515C137.871 208.569 133.811 211.441 129.142 212.505C124.473 213.568 119.574 212.737 115.515 210.191L70.3245 180.695C66.2806 178.125 63.4152 174.056 62.3544 169.376C61.2935 164.695 62.1233 159.784 64.6626 155.715C67.226 151.661 71.2855 148.789 75.9545 147.725C80.6235 146.662 85.5226 147.494 89.5818 150.039L134.772 179.535C138.816 182.105 141.682 186.174 142.742 190.855C143.803 195.535 142.973 200.446 140.434 204.515Z" fill="url(#paint8_linear)"/>
<path d="M138.034 202.962C135.633 206.759 131.832 209.449 127.459 210.445C123.087 211.441 118.499 210.662 114.697 208.278L72.3712 180.652C68.5837 178.246 65.9 174.435 64.9063 170.052C63.9126 165.668 64.6898 161.069 67.0679 157.258C69.4682 153.461 73.2698 150.771 77.6423 149.775C82.0148 148.779 86.6029 149.558 90.4044 151.942L132.73 179.568C136.518 181.974 139.202 185.785 140.195 190.169C141.189 194.552 140.412 199.151 138.034 202.962Z" fill="#F6B9AD"/>
<path d="M131.214 253.229C128.664 257.265 124.623 260.125 119.975 261.184C115.327 262.243 110.451 261.415 106.41 258.881L70.7453 235.751C66.7191 233.194 63.8661 229.144 62.8097 224.485C61.7533 219.825 62.5793 214.937 65.1073 210.886C67.6581 206.85 71.6988 203.99 76.3465 202.931C80.9943 201.872 85.8712 202.7 89.9118 205.234L125.572 228.369C129.597 230.925 132.45 234.974 133.508 239.632C134.565 244.29 133.74 249.179 131.214 253.229Z" fill="url(#paint9_linear)"/>
<path d="M122.262 302.193C119.689 306.266 115.612 309.152 110.922 310.221C106.232 311.29 101.31 310.455 97.2331 307.897L75.1448 291.742C71.0817 289.163 68.2024 285.075 67.1361 280.374C66.0698 275.673 66.9032 270.739 69.4542 266.652C72.0308 262.582 76.1094 259.7 80.7991 258.634C85.4888 257.569 90.4084 258.407 94.4835 260.966L116.572 277.117C120.631 279.696 123.507 283.781 124.574 288.479C125.64 293.177 124.809 298.107 122.262 302.193Z" fill="url(#paint10_linear)"/>
<path d="M120.479 300.989C118.078 304.786 114.277 307.477 109.904 308.473C105.532 309.469 100.944 308.69 97.1423 306.306L76.546 291.244C72.7584 288.838 70.0747 285.027 69.0811 280.644C68.0874 276.26 68.8645 271.661 71.2427 267.85C73.6429 264.054 77.4445 261.363 81.817 260.367C86.1896 259.371 90.7777 260.15 94.5791 262.534L115.175 277.596C118.963 280.002 121.647 283.813 122.64 288.196C123.634 292.579 122.857 297.179 120.479 300.989Z" fill="#F6B9AD"/>
<path d="M222.8 211.111H125.246V240.353H222.8V211.111Z" fill="url(#paint11_linear)"/>
<path d="M219.453 213.988H128.594V235.08H219.453V213.988Z" fill="#FC1ABD"/>
<path d="M388.283 158.836L390 159.104L389.732 158.85H389.876L389.651 158.773L358.525 129.181L350.969 141.132L344.685 152.033L347.598 152.489L346.306 158.395L388.283 158.836Z" fill="url(#paint12_linear)"/>
<path d="M352.274 141.755L346.536 151.731L388.618 158.601L361.513 139.68L352.274 141.755Z" fill="#FC1ABD"/>
<path opacity="0.2" d="M352.274 141.755L346.536 151.731L388.618 158.601L361.513 139.68L352.274 141.755Z" fill="black"/>
<path d="M359.184 130.826L388.618 158.601L352.274 141.755L359.184 130.826Z" fill="#FC1ABD"/>
<path d="M348.085 157.594L388.503 158.366L350.773 144.934L348.085 157.594Z" fill="#FC1ABD"/>
<path d="M129.254 251.978C126.854 255.775 123.052 258.465 118.679 259.461C114.307 260.457 109.719 259.678 105.917 257.294L72.3665 235.531C68.5789 233.125 65.8952 229.314 64.9015 224.931C63.9079 220.547 64.685 215.948 67.0632 212.137C69.4596 208.337 73.2594 205.641 77.6323 204.641C82.0051 203.64 86.5953 204.415 90.3996 206.797L123.95 228.561C127.745 230.967 130.433 234.782 131.427 239.171C132.421 243.56 131.639 248.165 129.254 251.978Z" fill="#F6B9AD"/>
</g>
<defs>
<linearGradient id="paint0_linear" x1="195.131" y1="400.321" x2="195.131" y2="261.671" gradientUnits="userSpaceOnUse">
<stop stop-color="#808080" stop-opacity="0.25"/>
<stop offset="0.54" stop-color="#808080" stop-opacity="0.12"/>
<stop offset="1" stop-color="#808080" stop-opacity="0.1"/>
</linearGradient>
<linearGradient id="paint1_linear" x1="36895.1" y1="21208.5" x2="36895.1" y2="10519.5" gradientUnits="userSpaceOnUse">
<stop stop-color="#808080" stop-opacity="0.25"/>
<stop offset="0.54" stop-color="#808080" stop-opacity="0.12"/>
<stop offset="1" stop-color="#808080" stop-opacity="0.1"/>
</linearGradient>
<linearGradient id="paint2_linear" x1="84112" y1="182581" x2="84112" y2="20227.6" gradientUnits="userSpaceOnUse">
<stop stop-color="#808080" stop-opacity="0.25"/>
<stop offset="0.54" stop-color="#808080" stop-opacity="0.12"/>
<stop offset="1" stop-color="#808080" stop-opacity="0.1"/>
</linearGradient>
<linearGradient id="paint3_linear" x1="44193.8" y1="79934.3" x2="44193.8" y2="43084.7" gradientUnits="userSpaceOnUse">
<stop stop-color="#808080" stop-opacity="0.25"/>
<stop offset="0.54" stop-color="#808080" stop-opacity="0.12"/>
<stop offset="1" stop-color="#808080" stop-opacity="0.1"/>
</linearGradient>
<linearGradient id="paint4_linear" x1="90352.2" y1="27723.6" x2="90352.2" y2="25441.3" gradientUnits="userSpaceOnUse">
<stop stop-color="#808080" stop-opacity="0.25"/>
<stop offset="0.54" stop-color="#808080" stop-opacity="0.12"/>
<stop offset="1" stop-color="#808080" stop-opacity="0.1"/>
</linearGradient>
<linearGradient id="paint5_linear" x1="173.607" y1="187.143" x2="173.607" y2="119.963" gradientUnits="userSpaceOnUse">
<stop stop-opacity="0.12"/>
<stop offset="0.55" stop-opacity="0.09"/>
<stop offset="1" stop-opacity="0.02"/>
</linearGradient>
<linearGradient id="paint6_linear" x1="33574.9" y1="20955.4" x2="33574.9" y2="13117.9" gradientUnits="userSpaceOnUse">
<stop stop-color="#808080" stop-opacity="0.25"/>
<stop offset="0.54" stop-color="#808080" stop-opacity="0.12"/>
<stop offset="1" stop-color="#808080" stop-opacity="0.1"/>
</linearGradient>
<linearGradient id="paint7_linear" x1="22240.9" y1="10602.3" x2="22247" y2="7920.93" gradientUnits="userSpaceOnUse">
<stop stop-opacity="0.12"/>
<stop offset="0.55" stop-opacity="0.09"/>
<stop offset="1" stop-opacity="0.02"/>
</linearGradient>
<linearGradient id="paint8_linear" x1="32256.4" y1="26411.2" x2="32256.4" y2="17410.7" gradientUnits="userSpaceOnUse">
<stop stop-color="#808080" stop-opacity="0.25"/>
<stop offset="0.54" stop-color="#808080" stop-opacity="0.12"/>
<stop offset="1" stop-color="#808080" stop-opacity="0.1"/>
</linearGradient>
<linearGradient id="paint9_linear" x1="27760.8" y1="29861.8" x2="27760.8" y2="22562.3" gradientUnits="userSpaceOnUse">
<stop stop-color="#808080" stop-opacity="0.25"/>
<stop offset="0.54" stop-color="#808080" stop-opacity="0.12"/>
<stop offset="1" stop-color="#808080" stop-opacity="0.1"/>
</linearGradient>
<linearGradient id="paint10_linear" x1="22358.2" y1="31947.1" x2="22358.2" y2="26197.7" gradientUnits="userSpaceOnUse">
<stop stop-color="#808080" stop-opacity="0.25"/>
<stop offset="0.54" stop-color="#808080" stop-opacity="0.12"/>
<stop offset="1" stop-color="#808080" stop-opacity="0.1"/>
</linearGradient>
<linearGradient id="paint11_linear" x1="33994" y1="11456.7" x2="33994" y2="9672.9" gradientUnits="userSpaceOnUse">
<stop stop-opacity="0.12"/>
<stop offset="0.55" stop-opacity="0.09"/>
<stop offset="1" stop-opacity="0.02"/>
</linearGradient>
<linearGradient id="paint12_linear" x1="31665.1" y1="31786" x2="32709.6" y2="30141.6" gradientUnits="userSpaceOnUse">
<stop stop-color="#808080" stop-opacity="0.25"/>
<stop offset="0.54" stop-color="#808080" stop-opacity="0.12"/>
<stop offset="1" stop-color="#808080" stop-opacity="0.1"/>
</linearGradient>
<clipPath id="clip0">
<rect width="382" height="362" fill="white" transform="translate(8 56)"/>
</clipPath>
</defs>
</svg>
